<svg width="25" height="25" viewBox="0 0 25 25" fill="none" xmlns="http://www.w3.org/2000/svg">
<path fill-rule="evenodd" clip-rule="evenodd" d="M19.6888 3.76182C20.1446 3.31647 20.854 3.29004 21.3399 3.67698L21.4565 3.78232L21.5777 3.90665C23.7607 6.212 25 9.26036 25 12.5C25 19.4036 19.4036 25 12.5 25C5.59644 25 0 19.4036 0 12.5C0 9.40121 1.13385 6.47744 3.15478 4.19918L3.43584 3.89255L3.54354 3.78232C4.026 3.28854 4.81741 3.27936 5.31119 3.76182C5.76699 4.20717 5.80988 4.91576 5.43431 5.41051L5.33169 5.52947L5.23755 5.6256C3.48997 7.47112 2.5 9.90624 2.5 12.5C2.5 18.0228 6.97715 22.5 12.5 22.5C18.0228 22.5 22.5 18.0228 22.5 12.5C22.5 10.0428 21.6115 7.72789 20.0436 5.93382L19.776 5.6397L19.6683 5.52947C19.1858 5.03568 19.195 4.24428 19.6888 3.76182ZM12.5 0C13.1904 0 13.75 0.559644 13.75 1.25V11.25C13.75 11.9404 13.1904 12.5 12.5 12.5C11.8096 12.5 11.25 11.9404 11.25 11.25V1.25C11.25 0.559644 11.8096 0 12.5 0Z" fill="#E6DFF1"/>
</svg>