<svg width="25" height="26" viewBox="0 0 25 26" fill="none" xmlns="http://www.w3.org/2000/svg">
<path d="M19.6367 0H3.92734C2.88575 0 1.88681 0.413773 1.15029 1.15029C0.413773 1.88681 0 2.88575 0 3.92734V19.6367C0 20.6783 0.413773 21.6773 1.15029 22.4138C1.88681 23.1503 2.88575 23.5641 3.92734 23.5641H19.6367C20.6783 23.5641 21.6773 23.1503 22.4138 22.4138C23.1503 21.6773 23.5641 20.6783 23.5641 19.6367V3.92734C23.5641 2.88575 23.1503 1.88681 22.4138 1.15029C21.6773 0.413773 20.6783 0 19.6367 0ZM3.92734 2.61823H19.6367C19.9839 2.61823 20.3169 2.75615 20.5624 3.00166C20.8079 3.24717 20.9458 3.58015 20.9458 3.92734V14.8715L16.7567 11.2977C16.1076 10.7636 15.2932 10.4716 14.4526 10.4716C13.6121 10.4716 12.7977 10.7636 12.1486 11.2977L2.61823 19.244V3.92734C2.61823 3.58015 2.75615 3.24717 3.00166 3.00166C3.24717 2.75615 3.58015 2.61823 3.92734 2.61823Z" fill="#F9F9F9"/>
<path d="M6.54557 9.1638C7.63008 9.1638 8.50924 8.28464 8.50924 7.20013C8.50924 6.11562 7.63008 5.23646 6.54557 5.23646C5.46107 5.23646 4.5819 6.11562 4.5819 7.20013C4.5819 8.28464 5.46107 9.1638 6.54557 9.1638Z" fill="#F9F9F9"/>
<circle cx="21.544" cy="21.6789" r="3.45606" fill="#FF0000"/>
</svg>