<svg width="25" height="25" viewBox="0 0 25 25" fill="none" xmlns="http://www.w3.org/2000/svg">
<path d="M24.0807 14.348L23.0661 12.8258V11.5628L24.0798 10.0424C24.2297 9.81789 24.3284 9.56323 24.3691 9.2964C24.4097 9.02957 24.3913 8.75706 24.3151 8.49812C24.0777 7.71637 23.7649 6.95953 23.381 6.23831C23.253 6.00111 23.0739 5.79527 22.8567 5.6356C22.6395 5.47593 22.3896 5.36641 22.1249 5.31492L20.3293 4.95583L19.4358 4.06251L19.0767 2.26704C19.0253 2.00209 18.9156 1.75188 18.7555 1.53451C18.5955 1.31715 18.3892 1.13807 18.1515 1.01022C17.4308 0.62719 16.6748 0.314699 15.894 0.0771017C15.6353 -0.000295176 15.3625 -0.0194178 15.0955 0.0211079C14.8285 0.0616336 14.5737 0.160802 14.3496 0.311485L12.8281 1.32597H11.5649L10.0426 0.311485C9.81889 0.160534 9.56444 0.0611945 9.29763 0.0206579C9.03082 -0.0198787 8.75833 -0.000599009 8.49989 0.0771017C7.71805 0.314474 6.96113 0.627278 6.23981 1.0111C6.00226 1.13873 5.79612 1.31767 5.63638 1.53492C5.47664 1.75216 5.36731 2.00226 5.31632 2.26704L4.95719 4.06251L4.06377 4.95583L2.26632 5.31492C2.00163 5.36623 1.75167 5.47578 1.53456 5.63564C1.31746 5.79551 1.13866 6.00167 1.01111 6.23919C0.627703 6.96002 0.31488 7.71622 0.0770065 8.49724C-0.000583638 8.75581 -0.0198036 9.02838 0.0207333 9.29528C0.0612702 9.56218 0.160553 9.81675 0.311419 10.0406L1.32691 11.5628V12.8258L0.310533 14.3489C0.159972 14.5727 0.0609336 14.8272 0.0205525 15.0939C-0.0198286 15.3606 -0.00054764 15.633 0.0770065 15.8914C0.314567 16.672 0.627405 17.4276 1.01111 18.1477C1.13838 18.3857 1.31719 18.5924 1.53449 18.7526C1.75179 18.9128 2.00212 19.0225 2.2672 19.0737L4.06377 19.4328L4.95719 20.3261L5.31632 22.1207C5.36675 22.3859 5.47585 22.6365 5.63563 22.8541C5.79542 23.0717 6.00185 23.2509 6.23981 23.3784C6.96047 23.7619 7.71682 24.0741 8.49813 24.3106C8.75661 24.3899 9.02961 24.4101 9.29694 24.3697C9.56427 24.3293 9.8191 24.2293 10.0426 24.0771L11.5649 23.0627H12.8281L14.3496 24.0771C14.6515 24.28 15.0066 24.3889 15.3704 24.3902C15.5478 24.39 15.7243 24.3635 15.894 24.3115C16.6746 24.0741 17.4303 23.7616 18.1506 23.3784C18.3888 23.2514 18.5955 23.0726 18.7556 22.8553C18.9157 22.638 19.0251 22.3876 19.0758 22.1225L19.435 20.3261L20.3293 19.4328L22.1258 19.0737C22.3906 19.022 22.6406 18.9121 22.8578 18.7522C23.075 18.5922 23.254 18.386 23.3819 18.1486C23.7653 17.4281 24.0778 16.6722 24.3151 15.8914C24.3913 15.6326 24.4098 15.3603 24.3693 15.0937C24.3288 14.827 24.2303 14.5725 24.0807 14.348ZM12.1962 17.6286C11.1213 17.6286 10.0705 17.3099 9.17677 16.7128C8.28302 16.1157 7.58643 15.267 7.17508 14.274C6.76374 13.281 6.65611 12.1884 6.86581 11.1343C7.07551 10.0801 7.59313 9.11187 8.3532 8.35189C9.11327 7.5919 10.0817 7.07435 11.1359 6.86467C12.1902 6.65499 13.2829 6.76261 14.276 7.17391C15.2691 7.58521 16.1179 8.28172 16.7151 9.17536C17.3123 10.069 17.631 11.1196 17.631 12.1944C17.631 13.6357 17.0584 15.0178 16.0392 16.037C15.0199 17.0561 13.6376 17.6286 12.1962 17.6286Z" fill="#F9F9F9"/>
<circle cx="21.6457" cy="21.0366" r="3.35366" fill="#FF0000"/>
</svg>