<svg width="20" height="20" viewBox="0 0 20 20" fill="none" xmlns="http://www.w3.org/2000/svg">
<path d="M9.8609 0C7.9106 0 6.0041 0.578331 4.38248 1.66186C2.76086 2.74539 1.49697 4.28545 0.75062 6.08729C0.00427258 7.88914 -0.191006 9.87183 0.189479 11.7847C0.569964 13.6975 1.50912 15.4545 2.88819 16.8336C4.26726 18.2127 6.02431 19.1518 7.93714 19.5323C9.84996 19.9128 11.8327 19.7175 13.6345 18.9712C15.4363 18.2248 16.9764 16.9609 18.0599 15.3393C19.1435 13.7177 19.7218 11.8112 19.7218 9.8609C19.719 7.24649 18.6791 4.73998 16.8305 2.89131C14.9818 1.04265 12.4753 0.00282768 9.8609 0ZM9.8609 18.0783C8.23565 18.0783 6.6469 17.5964 5.29555 16.6934C3.9442 15.7905 2.89096 14.5071 2.269 13.0056C1.64704 11.504 1.48431 9.85178 1.80138 8.25776C2.11845 6.66374 2.90109 5.19953 4.05031 4.05031C5.19954 2.90108 6.66374 2.11845 8.25776 1.80138C9.85178 1.48431 11.504 1.64704 13.0056 2.269C14.5071 2.89095 15.7905 3.9442 16.6934 5.29555C17.5964 6.64689 18.0783 8.23565 18.0783 9.8609C18.0759 12.0396 17.2094 14.1283 15.6688 15.6688C14.1283 17.2094 12.0396 18.0759 9.8609 18.0783Z" fill="#6B0000"/>
<path d="M9.86056 4.10877C9.64262 4.10877 9.43361 4.19534 9.27951 4.34945C9.1254 4.50356 9.03882 4.71257 9.03882 4.93051V11.5044C9.03882 11.7224 9.1254 11.9314 9.27951 12.0855C9.43361 12.2396 9.64262 12.3262 9.86056 12.3262C10.0785 12.3262 10.2875 12.2396 10.4416 12.0855C10.5957 11.9314 10.6823 11.7224 10.6823 11.5044V4.93051C10.6823 4.71257 10.5957 4.50356 10.4416 4.34945C10.2875 4.19534 10.0785 4.10877 9.86056 4.10877Z" fill="#6B0000"/>
<path d="M10.6823 14.7914C10.6823 14.3376 10.3144 13.9697 9.86056 13.9697C9.40673 13.9697 9.03882 14.3376 9.03882 14.7914C9.03882 15.2452 9.40673 15.6131 9.86056 15.6131C10.3144 15.6131 10.6823 15.2452 10.6823 14.7914Z" fill="#6B0000"/>
</svg>