<svg width="96" height="86" viewBox="0 0 96 86" fill="none" xmlns="http://www.w3.org/2000/svg">
<g clip-path="url(#clip0_36_75)">
<path fill-rule="evenodd" clip-rule="evenodd" d="M27.5093 78.8333L39.9906 82.1609V77.8095L41.0095 76.7857H48.1416V81.9048V85.4881H40.5001L31.0753 81.3928L27.5093 78.8333Z" fill="#CDBDB2"/>
<path fill-rule="evenodd" clip-rule="evenodd" d="M68.2642 78.8333L56.0377 82.1609V77.8095L55.0189 76.7857H47.8868V81.9048V85.4881H55.5283L64.9526 81.3928L68.2642 78.8333Z" fill="#CDBDB2"/>
<path fill-rule="evenodd" clip-rule="evenodd" d="M41.0096 69.3633L39.9907 77.8095L41.2641 76.7857H54.5094L56.0377 77.8095L55.0188 69.3633L52.9811 68.0833L42.7924 68.3395L41.0096 69.3633Z" fill="#393939"/>
<path fill-rule="evenodd" clip-rule="evenodd" d="M34.1318 12.2857L40.245 26.619L43.0472 68.3395H52.9809L56.0375 26.619L61.6413 12.2857H34.1318Z" fill="#F89C35"/>
<path fill-rule="evenodd" clip-rule="evenodd" d="M7.38696 43.7681L0.254883 64.5L18.0851 63.4762H29.5471V54.5181L29.0377 36.0895L26.4905 38.1371L7.38696 43.7681Z" fill="#F89D35"/>
<path fill-rule="evenodd" clip-rule="evenodd" d="M20.8867 46.0714L41.7735 46.5833L39.4813 57.3333L29.5471 54.7738L20.8867 46.0714Z" fill="#D87C30"/>
<path fill-rule="evenodd" clip-rule="evenodd" d="M20.8867 46.3276L29.5471 54.5181V62.7086L20.8867 46.3276Z" fill="#EA8D3A"/>
<path fill-rule="evenodd" clip-rule="evenodd" d="M29.5469 54.7738L39.7356 57.3333L43.0471 68.3395L40.7544 69.619L29.5469 62.9643V54.7738Z" fill="#F89D35"/>
<path fill-rule="evenodd" clip-rule="evenodd" d="M29.547 62.9643L27.5093 78.8333L41.0095 69.3633L29.547 62.9643Z" fill="#EB8F35"/>
<path fill-rule="evenodd" clip-rule="evenodd" d="M41.7737 46.5833L43.0475 68.3395L39.2266 57.2055L41.7737 46.5833Z" fill="#EA8E3A"/>
<path fill-rule="evenodd" clip-rule="evenodd" d="M17.8301 63.2205L29.5471 62.9643L27.5093 78.8333L17.8301 63.2205Z" fill="#D87C30"/>
<path fill-rule="evenodd" clip-rule="evenodd" d="M5.85866 85.7443L27.5094 78.8333L17.8301 63.2205L0.254883 64.5L5.85866 85.7443Z" fill="#EB8F35"/>
<path fill-rule="evenodd" clip-rule="evenodd" d="M40.2452 26.619L29.2926 35.8333L20.8867 46.0714L41.7735 46.8395L40.2452 26.619Z" fill="#E8821E"/>
<path fill-rule="evenodd" clip-rule="evenodd" d="M27.5093 78.8333L41.0095 69.3633L39.9906 77.5538V82.1609L30.8208 80.369L27.5093 78.8333Z" fill="#DFCEC3"/>
<path fill-rule="evenodd" clip-rule="evenodd" d="M68.2642 78.8333L55.0189 69.3633L56.0377 77.5538V82.1609L65.2076 80.369L68.2642 78.8333Z" fill="#DFCEC3"/>
<path fill-rule="evenodd" clip-rule="evenodd" d="M36.1696 51.1905L38.9717 57.0776L29.0375 54.5181L36.1696 51.1905Z" fill="#393939"/>
<path fill-rule="evenodd" clip-rule="evenodd" d="M5.60352 0.256165L40.245 26.619L34.3868 12.2857L5.60352 0.256165Z" fill="#E88F35"/>
<path fill-rule="evenodd" clip-rule="evenodd" d="M5.60395 0.255951L1.01904 14.3333L3.56621 29.6905L1.78319 30.7143L4.33036 33.0179L2.29263 34.8095L5.09451 37.369L3.3115 38.9048L7.38697 44.0238L26.4907 38.1369C35.8304 30.629 40.4153 26.7897 40.2455 26.619C40.0756 26.4484 28.5285 17.6607 5.60395 0.255951Z" fill="#8E5A30"/>
<path fill-rule="evenodd" clip-rule="evenodd" d="M88.3865 43.7681L95.5186 64.5L77.6884 63.4762H66.2263V54.5181L66.7358 36.0895L69.2829 38.1371L88.3865 43.7681Z" fill="#F89D35"/>
<path fill-rule="evenodd" clip-rule="evenodd" d="M74.8867 46.0714L53.9999 46.5833L56.2922 57.3333L66.2263 54.7738L74.8867 46.0714Z" fill="#D87C30"/>
<path fill-rule="evenodd" clip-rule="evenodd" d="M74.8867 46.3276L66.2263 54.5181V62.7086L74.8867 46.3276Z" fill="#EA8D3A"/>
<path fill-rule="evenodd" clip-rule="evenodd" d="M66.2266 54.7738L56.0379 57.3333L52.7263 68.3395L55.019 69.619L66.2266 62.9643V54.7738Z" fill="#F89D35"/>
<path fill-rule="evenodd" clip-rule="evenodd" d="M66.2264 62.9643L68.2642 78.8333L55.0189 69.6191L66.2264 62.9643Z" fill="#EB8F35"/>
<path fill-rule="evenodd" clip-rule="evenodd" d="M53.9997 46.5833L52.7259 68.3395L56.5469 57.2055L53.9997 46.5833Z" fill="#EA8E3A"/>
<path fill-rule="evenodd" clip-rule="evenodd" d="M77.9434 63.2205L66.2264 62.9643L68.2641 78.8333L77.9434 63.2205Z" fill="#D87C30"/>
<path fill-rule="evenodd" clip-rule="evenodd" d="M89.9148 85.7443L68.2641 78.8333L77.9433 63.2205L95.5186 64.5L89.9148 85.7443Z" fill="#EB8F35"/>
<path fill-rule="evenodd" clip-rule="evenodd" d="M55.5282 26.619L66.4808 35.8333L74.8867 46.0714L53.9999 46.8395L55.5282 26.619Z" fill="#E8821E"/>
<path fill-rule="evenodd" clip-rule="evenodd" d="M59.6039 51.1905L56.8018 57.0776L66.7359 54.5181L59.6039 51.1905Z" fill="#393939"/>
<path fill-rule="evenodd" clip-rule="evenodd" d="M90.1699 0.256165L55.5284 26.619L61.3867 12.2857L90.1699 0.256165Z" fill="#E88F35"/>
<path fill-rule="evenodd" clip-rule="evenodd" d="M90.1695 0.255951L94.7544 14.3333L92.2072 29.6905L93.9902 30.7143L91.4431 33.0179L93.4808 34.8095L90.6789 37.369L92.4619 38.9048L88.3865 44.0238L69.2827 38.1369C59.9431 30.629 55.3582 26.7897 55.528 26.619C55.6978 26.4484 67.245 17.6607 90.1695 0.255951Z" fill="#8E5A30"/>
</g>
<defs>
<clipPath id="clip0_36_75">
<rect width="96" height="86" fill="white"/>
</clipPath>
</defs>
</svg>