<svg width="163" height="46" viewBox="0 0 163 46" fill="none" xmlns="http://www.w3.org/2000/svg">
<path d="M0.00938717 9.65504C-0.201013 5.30976 3.15097 1.61665 7.49625 1.40625L36.345 0.00938717C40.6902 -0.201013 44.3833 3.15097 44.5937 7.49625L45.9906 36.345C46.201 40.6902 42.849 44.3833 38.5037 44.5937L9.65504 45.9906C5.30976 46.201 1.61665 42.849 1.40625 38.5037L0.00938717 9.65504Z" fill="url(#paint0_linear_29_1180)"/>
<path fill-rule="evenodd" clip-rule="evenodd" d="M29.7762 29.6392C29.7634 29.3618 29.9779 29.1265 30.2554 29.1137L35.9284 28.852C36.2058 28.8392 36.4411 29.0537 36.4539 29.3312L36.7156 35.0042C36.7284 35.2816 36.5139 35.5169 36.2365 35.5297L30.5634 35.7914C30.286 35.8042 30.0507 35.5897 30.0379 35.3123L29.7762 29.6392ZM19.7596 30.1013C19.7468 29.8239 19.9614 29.5886 20.2388 29.5758L25.9118 29.3141C26.1893 29.3013 26.4245 29.5158 26.4373 29.7933L26.6991 35.4663C26.7119 35.7437 26.4973 35.979 26.2199 35.9918L20.5469 36.2535C20.2694 36.2663 20.0342 36.0518 20.0214 35.7744L19.7596 30.1013ZM9.74306 30.5634C9.73026 30.286 9.94479 30.0507 10.2222 30.0379L15.8953 29.7762C16.1727 29.7634 16.408 29.9779 16.4208 30.2554L16.6825 35.9284C16.6953 36.2058 16.4808 36.4411 16.2033 36.4539L10.5303 36.7156C10.2529 36.7284 10.0176 36.5139 10.0048 36.2365L9.74306 30.5634ZM29.3141 19.6227C29.3013 19.3452 29.5158 19.1099 29.7933 19.0971L35.4663 18.8354C35.7437 18.8226 35.979 19.0372 35.9918 19.3146L36.2535 24.9876C36.2663 25.2651 36.0518 25.5003 35.7744 25.5131L30.1013 25.7749C29.8239 25.7877 29.5886 25.5731 29.5758 25.2957L29.3141 19.6227ZM19.2975 20.0848C19.2847 19.8073 19.4993 19.572 19.7767 19.5592L25.4497 19.2975C25.7272 19.2847 25.9624 19.4993 25.9752 19.7767L26.237 25.4497C26.2498 25.7272 26.0352 25.9624 25.7578 25.9752L20.0848 26.237C19.8073 26.2498 19.5721 26.0352 19.5592 25.7578L19.2975 20.0848ZM9.28096 20.5469C9.26816 20.2694 9.48269 20.0341 9.76012 20.0213L15.4332 19.7596C15.7106 19.7468 15.9459 19.9614 15.9587 20.2388L16.2204 25.9118C16.2332 26.1893 16.0187 26.4245 15.7412 26.4373L10.0682 26.6991C9.79075 26.7119 9.55547 26.4973 9.54268 26.2199L9.28096 20.5469ZM28.852 9.60608C28.8392 9.32865 29.0537 9.09337 29.3312 9.08057L35.0042 8.81885C35.2816 8.80605 35.5169 9.02058 35.5297 9.29801L35.7914 14.9711C35.8042 15.2485 35.5897 15.4838 35.3123 15.4966L29.6392 15.7583C29.3618 15.7711 29.1265 15.5566 29.1137 15.2791L28.852 9.60608ZM18.8354 10.0682C18.8226 9.79075 19.0372 9.55547 19.3146 9.54267L24.9876 9.28095C25.2651 9.26815 25.5003 9.48268 25.5131 9.76011L25.7749 15.4332C25.7877 15.7106 25.5731 15.9459 25.2957 15.9587L19.6227 16.2204C19.3452 16.2332 19.1099 16.0187 19.0971 15.7412L18.8354 10.0682ZM8.81886 10.5303C8.80606 10.2528 9.02059 10.0176 9.29802 10.0048L14.9711 9.74305C15.2485 9.73025 15.4838 9.94478 15.4966 10.2222L15.7583 15.8953C15.7711 16.1727 15.5566 16.408 15.2791 16.4208L9.60609 16.6825C9.32865 16.6953 9.09337 16.4808 9.08057 16.2033L8.81886 10.5303Z" fill="white"/>
<path d="M69.4563 32.9393C69.3467 32.994 69.1916 33.0306 68.9908 33.0488C68.8083 33.0853 68.6075 33.1036 68.3884 33.1036C68.0416 33.1036 67.7039 33.0397 67.3753 32.9119C67.065 32.8024 66.8094 32.6107 66.6087 32.3369C66.4261 32.0631 66.3348 31.7071 66.3348 31.269C66.3348 30.0278 66.3348 28.7956 66.3348 27.5726C66.3348 26.3313 66.3348 25.0992 66.3348 23.8762C66.3348 22.6349 66.3348 21.4028 66.3348 20.1798C66.3348 18.9385 66.3348 17.6972 66.3348 16.4559C66.3348 15.9631 66.3075 15.4885 66.2527 15.0321C66.1979 14.5575 66.1341 14.1103 66.061 13.6905C66.2618 13.6357 66.4535 13.5992 66.636 13.5809C66.8368 13.5444 67.0285 13.5262 67.211 13.5262C67.3936 13.5079 67.5761 13.4988 67.7587 13.4988C68.288 13.4988 68.7261 13.5627 69.0729 13.6905C69.438 13.8 69.7301 14.0008 69.9491 14.2929C70.1682 14.5667 70.3233 14.95 70.4146 15.4429C70.5241 15.9905 70.6428 16.5472 70.7706 17.1131C70.8983 17.679 71.0352 18.2448 71.1813 18.8107C71.3273 19.3583 71.5007 19.9059 71.7015 20.4536C71.9023 20.9829 72.1305 21.5123 72.386 22.0417C72.6416 22.5528 72.9245 23.0639 73.2348 23.575L72.167 22.8357H73.6456L72.5503 23.5476C72.8606 23.0548 73.1527 22.5436 73.4265 22.0143C73.7003 21.4667 73.9468 20.8917 74.1658 20.2893C74.3848 19.6686 74.5856 19.0206 74.7682 18.3452C74.9507 17.6516 75.1059 16.9214 75.2337 16.1548C75.3797 15.3881 75.4892 14.5667 75.5622 13.6905C75.7083 13.6357 75.8543 13.5992 76.0003 13.5809C76.1646 13.5627 76.3198 13.5444 76.4658 13.5262C76.6118 13.5079 76.7761 13.4988 76.9587 13.4988C77.5428 13.4988 78.0083 13.5718 78.3551 13.7179C78.7019 13.8456 78.9575 14.0738 79.1218 14.4024C79.286 14.7127 79.3682 15.1508 79.3682 15.7167C79.3682 16.4651 79.3682 17.2226 79.3682 17.9893C79.3682 18.7559 79.3682 19.5409 79.3682 20.344C79.3682 21.129 79.3682 21.923 79.3682 22.7262C79.3682 23.5294 79.3682 24.3417 79.3682 25.1631C79.3682 25.9845 79.3682 26.8059 79.3682 27.6274C79.3682 28.4488 79.3682 29.2702 79.3682 30.0917C79.3682 30.4202 79.3773 30.7488 79.3956 31.0774C79.4138 31.4059 79.4412 31.7254 79.4777 32.0357C79.5142 32.3278 79.569 32.6198 79.642 32.9119C79.4594 32.9667 79.286 33.0123 79.1218 33.0488C78.9575 33.0853 78.7384 33.1036 78.4646 33.1036C78.0995 33.1036 77.7436 33.0397 77.3967 32.9119C77.0682 32.7841 76.7944 32.5742 76.5753 32.2821C76.3563 31.9901 76.2467 31.5976 76.2467 31.1048C76.2467 30.8127 76.2467 30.5206 76.2467 30.2286C76.2467 29.9183 76.2467 29.6171 76.2467 29.325C76.2467 29.0329 76.2467 28.7409 76.2467 28.4488C76.2467 28.0655 76.2467 27.673 76.2467 27.2714C76.265 26.8516 76.2741 26.4044 76.2741 25.9298C76.2924 25.4552 76.3106 24.9532 76.3289 24.4238C76.3654 23.8944 76.411 23.3103 76.4658 22.6714C76.5206 22.0325 76.5753 21.3389 76.6301 20.5905C76.7031 19.8421 76.7944 19.0206 76.9039 18.1262L77.4515 19.0024H76.0277L76.8765 18.0988C76.6575 18.9202 76.4293 19.696 76.192 20.4262C75.9729 21.1563 75.7356 21.8317 75.4801 22.4524C75.2245 23.073 74.9598 23.6389 74.686 24.15C74.4305 24.6611 74.1658 25.1266 73.892 25.5464C73.6182 25.948 73.3352 26.2857 73.0432 26.5595C73.0067 26.5595 72.961 26.5595 72.9063 26.5595C72.8698 26.5595 72.8333 26.5595 72.7967 26.5595C72.7055 26.5595 72.6325 26.5504 72.5777 26.5321C72.5229 26.5139 72.4682 26.4774 72.4134 26.4226C72.1761 26.1853 71.9479 25.9024 71.7289 25.5738C71.5098 25.227 71.2817 24.8163 71.0444 24.3417C70.8253 23.8671 70.5971 23.3286 70.3598 22.7262C70.1225 22.1056 69.8761 21.421 69.6206 20.6726C69.3833 19.9242 69.1277 19.1119 68.8539 18.2357L69.7575 19.0024H68.3063L68.8539 18.2083C68.9452 19.0663 69.0182 19.8694 69.0729 20.6179C69.146 21.348 69.2007 22.0234 69.2372 22.644C69.292 23.2464 69.3285 23.8123 69.3467 24.3417C69.3833 24.8528 69.4015 25.3365 69.4015 25.7929C69.4198 26.2492 69.4289 26.6873 69.4289 27.1071C69.4471 27.527 69.4563 27.9468 69.4563 28.3667C69.4563 29.1151 69.4563 29.8726 69.4563 30.6393C69.4563 31.4059 69.4563 32.1726 69.4563 32.9393Z" fill="white"/>
<path d="M89.9813 17.7976C91.2408 17.7976 92.2995 18.0532 93.1575 18.5643C94.0337 19.0754 94.6999 19.7782 95.1563 20.6726C95.6309 21.5488 95.8682 22.571 95.8682 23.7393V23.8488C95.8682 24.5242 95.8226 25.0536 95.7313 25.4369C95.6583 25.802 95.5488 26.0575 95.4027 26.2036C95.2567 26.3496 95.0833 26.4226 94.8825 26.4226H88.3932C87.9186 26.4226 87.4896 26.3679 87.1063 26.2583C86.723 26.1306 86.4126 25.9571 86.1753 25.7381L85.6277 26.0119L85.7099 24.3964H92.5003C92.5551 24.2321 92.5825 24.0587 92.5825 23.8762C92.6007 23.6936 92.6099 23.5294 92.6099 23.3833C92.6099 22.8905 92.5551 22.4433 92.4456 22.0417C92.3361 21.6218 92.1535 21.2385 91.898 20.8917C91.6424 20.8004 91.396 20.7365 91.1587 20.7C90.9396 20.6635 90.6293 20.6452 90.2277 20.6452C88.9682 20.6452 87.946 21.1381 87.1611 22.1238C86.3944 23.0913 86.0111 24.5698 86.0111 26.5595V26.7512C86.0111 27.2988 86.0567 27.8008 86.148 28.2571C86.2575 28.6952 86.4035 29.0968 86.5861 29.4619C87.0607 29.7175 87.5809 29.9091 88.1468 30.0369C88.7126 30.1464 89.4063 30.2012 90.2277 30.2012C90.8666 30.2012 91.469 30.1556 92.0349 30.0643C92.6007 29.973 93.1392 29.827 93.6503 29.6262C94.1797 29.4254 94.6908 29.1698 95.1837 28.8595H95.348C95.3845 29.0056 95.4027 29.1516 95.4027 29.2976C95.421 29.4436 95.4301 29.5988 95.4301 29.7631C95.4301 30.2925 95.3571 30.7306 95.2111 31.0774C95.0833 31.4242 94.8916 31.7254 94.6361 31.9809C94.344 32.273 93.9607 32.5194 93.4861 32.7202C93.0297 32.9028 92.5186 33.0306 91.9527 33.1036C91.4051 33.1948 90.821 33.2405 90.2003 33.2405C89.1051 33.2405 88.1011 33.0762 87.1884 32.7476C86.2757 32.419 85.4817 31.9444 84.8063 31.3238C84.1492 30.7032 83.6289 29.9548 83.2456 29.0786C82.8805 28.1841 82.698 27.1802 82.698 26.0667V25.875C82.698 24.6337 82.8805 23.5202 83.2456 22.5345C83.6107 21.5488 84.1218 20.7091 84.7789 20.0155C85.4361 19.3036 86.2118 18.7559 87.1063 18.3726C88.0007 17.9893 88.9591 17.7976 89.9813 17.7976Z" fill="white"/>
<path d="M98.8146 18.1809H110.725C111.346 18.1809 111.775 18.327 112.012 18.619C112.25 18.9111 112.368 19.4313 112.368 20.1798C112.368 20.3258 112.359 20.4809 112.341 20.6452C112.341 20.8095 112.332 20.9647 112.313 21.1107C112.295 21.2385 112.268 21.3663 112.231 21.494H102.812C102.046 21.494 101.398 21.4393 100.868 21.3298C100.339 21.2202 99.919 21.0559 99.6087 20.8369C99.2984 20.6179 99.0793 20.344 98.9515 20.0155C98.8238 19.6869 98.7599 19.2853 98.7599 18.8107C98.7599 18.7377 98.7599 18.6647 98.7599 18.5917C98.7781 18.5004 98.7873 18.4274 98.7873 18.3726C98.8055 18.2996 98.8146 18.2357 98.8146 18.1809ZM112.231 28.8321C112.25 28.9599 112.268 29.1059 112.286 29.2702C112.304 29.4163 112.313 29.5532 112.313 29.681C112.313 30.2468 112.24 30.7397 112.094 31.1595C111.948 31.5611 111.711 31.9171 111.383 32.2274C111.236 32.3734 111.054 32.5103 110.835 32.6381C110.616 32.7659 110.36 32.8663 110.068 32.9393C109.794 33.0306 109.475 33.0944 109.11 33.1309C108.763 33.1857 108.38 33.2131 107.96 33.2131C107.138 33.2131 106.39 33.1036 105.715 32.8845C105.039 32.6655 104.455 32.3552 103.962 31.9536C103.488 31.5337 103.113 31.0409 102.84 30.475C102.584 29.9091 102.456 29.2702 102.456 28.5583C102.456 27.5179 102.456 26.4865 102.456 25.4643C102.456 24.4238 102.456 23.3925 102.456 22.3702C102.456 21.348 102.456 20.3167 102.456 19.2762C102.456 18.2357 102.456 17.2135 102.456 16.2095C102.456 15.7532 102.429 15.3151 102.374 14.8952C102.338 14.4571 102.256 14.0556 102.128 13.6905C102.402 13.6175 102.657 13.5627 102.894 13.5262C103.15 13.4897 103.396 13.4714 103.634 13.4714C104.035 13.4714 104.391 13.5627 104.702 13.7452C105.03 13.9278 105.286 14.2107 105.468 14.594C105.669 14.9591 105.769 15.4337 105.769 16.0179C105.769 17.0401 105.769 18.0532 105.769 19.0571C105.769 20.0611 105.769 21.0742 105.769 22.0964C105.769 23.1004 105.769 24.1044 105.769 25.1083C105.769 26.1123 105.769 27.1254 105.769 28.1476C105.769 28.4214 105.779 28.677 105.797 28.9143C105.833 29.1333 105.888 29.3433 105.961 29.544C106.235 29.6901 106.518 29.7996 106.81 29.8726C107.102 29.9274 107.421 29.9548 107.768 29.9548C108.389 29.9548 108.936 29.9183 109.411 29.8452C109.886 29.7722 110.324 29.6536 110.725 29.4893C111.145 29.325 111.592 29.1059 112.067 28.8321H112.231Z" fill="white"/>
<path d="M115.26 25.4643H125.802C126.24 25.4643 126.559 25.4825 126.76 25.519C126.961 25.5556 127.152 25.6194 127.335 25.7107L128.43 25.6286V26.2036V26.8333H115.917C115.771 26.8333 115.643 26.7877 115.534 26.6964C115.442 26.5869 115.369 26.45 115.315 26.2857C115.278 26.1214 115.26 25.9389 115.26 25.7381V25.4643ZM117.45 33.0488C117.377 33.0671 117.304 33.0853 117.231 33.1036C117.158 33.1218 117.049 33.1309 116.903 33.1309C116.793 33.1309 116.675 33.1127 116.547 33.0762C116.419 33.0397 116.31 32.9758 116.218 32.8845C116.127 32.7933 116.081 32.6655 116.081 32.5012C116.154 31.4425 116.264 30.4111 116.41 29.4071C116.574 28.3849 116.766 27.3992 116.985 26.45C117.204 25.4825 117.45 24.5425 117.724 23.6298C118.016 22.6988 118.327 21.7952 118.655 20.919C118.984 20.0429 119.34 19.1849 119.723 18.3452C120.125 17.5056 120.535 16.6841 120.955 15.8809C121.393 15.0778 121.84 14.2929 122.297 13.5262C122.388 13.4897 122.498 13.4623 122.625 13.444C122.771 13.4258 122.936 13.4167 123.118 13.4167C123.356 13.4167 123.565 13.4532 123.748 13.5262C123.931 13.5992 124.131 13.7817 124.35 14.0738C124.569 14.3476 124.834 14.7857 125.144 15.3881C125.564 16.173 126.002 17.104 126.459 18.1809C126.933 19.2579 127.39 20.4444 127.828 21.7405C128.266 23.0182 128.658 24.3873 129.005 25.8476C129.37 27.3079 129.644 28.823 129.827 30.3929C129.881 30.8309 129.927 31.2964 129.963 31.7893C130.018 32.2639 130.046 32.6837 130.046 33.0488C129.973 33.0671 129.9 33.0853 129.827 33.1036C129.772 33.1218 129.699 33.1309 129.608 33.1309C129.461 33.1309 129.315 33.1036 129.169 33.0488C129.042 33.0123 128.932 32.9393 128.841 32.8298C128.75 32.7202 128.695 32.5833 128.677 32.419C128.549 31.3056 128.375 30.1282 128.156 28.8869C127.937 27.6456 127.663 26.377 127.335 25.0809C127.025 23.7849 126.65 22.498 126.212 21.2202C125.774 19.9425 125.272 18.7012 124.706 17.4964C124.14 16.2734 123.502 15.1234 122.79 14.0464L124.049 14.7309H122.242L123.502 14.0464C122.899 15.0321 122.315 16.0726 121.749 17.1679C121.202 18.2631 120.69 19.4131 120.216 20.6179C119.741 21.8226 119.312 23.0821 118.929 24.3964C118.546 25.7107 118.226 27.0889 117.971 28.5309C117.715 29.973 117.542 31.479 117.45 33.0488Z" fill="white"/>
<path d="M135.731 32.9119C135.658 32.9302 135.585 32.9484 135.512 32.9667C135.439 32.9849 135.356 32.994 135.265 32.994C134.864 32.994 134.581 32.8663 134.416 32.6107C134.252 32.3369 134.17 31.9171 134.17 31.3512C134.17 29.9091 134.17 28.4762 134.17 27.0524C134.17 25.6103 134.17 24.1774 134.17 22.7536C134.17 21.3115 134.17 19.8786 134.17 18.4548C134.17 17.0127 134.17 15.5706 134.17 14.1286H135.539L135.156 14.95C135.32 15.1508 135.42 15.379 135.457 15.6345C135.512 15.8901 135.539 16.1821 135.539 16.5107C135.539 17.9345 135.539 19.3857 135.539 20.8643C135.539 22.3429 135.539 23.8488 135.539 25.3821C135.539 26.8972 135.539 28.4306 135.539 29.9821C135.539 30.4932 135.548 30.9952 135.566 31.4881C135.603 31.9627 135.658 32.4373 135.731 32.9119ZM132.801 13.6905C134.133 13.4714 135.292 13.3254 136.278 13.2524C137.264 13.1794 138.158 13.1429 138.962 13.1429C139.965 13.1429 140.842 13.2341 141.59 13.4167C142.357 13.5809 143.005 13.8274 143.534 14.1559C144.082 14.4663 144.52 14.8587 144.848 15.3333C145.177 15.8079 145.414 16.3556 145.56 16.9762C145.725 17.5786 145.807 18.2448 145.807 18.975V19.6321C145.807 20.7821 145.56 21.85 145.067 22.8357C144.575 23.8214 143.908 24.6885 143.069 25.4369C142.247 26.1671 141.316 26.7421 140.276 27.1619C139.235 27.5817 138.167 27.7917 137.072 27.7917C136.725 27.7917 136.442 27.7552 136.223 27.6821C136.023 27.5909 135.849 27.4722 135.703 27.3262L135.21 27.5179V26.1762C135.466 26.2675 135.712 26.3313 135.95 26.3679C136.205 26.4044 136.516 26.4226 136.881 26.4226C137.866 26.4226 138.806 26.2492 139.701 25.9024C140.614 25.5556 141.426 25.0718 142.138 24.4512C142.85 23.8306 143.406 23.1004 143.808 22.2607C144.228 21.421 144.438 20.5083 144.438 19.5226V19.1119C144.438 18.4913 144.374 17.898 144.246 17.3321C144.137 16.7663 143.945 16.2552 143.671 15.7988C143.05 15.3242 142.402 14.9956 141.727 14.8131C141.052 14.6123 140.157 14.5119 139.044 14.5119C138.204 14.5119 137.392 14.5575 136.607 14.6488C135.84 14.7401 135.183 14.8313 134.635 14.9226C134.088 15.0139 133.723 15.0595 133.54 15.0595C133.266 15.0595 133.075 14.9682 132.965 14.7857C132.856 14.5849 132.801 14.3111 132.801 13.9643C132.801 13.9278 132.801 13.8821 132.801 13.8274C132.801 13.7726 132.801 13.727 132.801 13.6905Z" fill="white"/>
<path d="M152.148 32.9119C152.075 32.9302 152.002 32.9484 151.929 32.9667C151.856 32.9849 151.774 32.994 151.683 32.994C151.281 32.994 150.998 32.8663 150.834 32.6107C150.67 32.3369 150.588 31.9171 150.588 31.3512C150.588 29.9091 150.588 28.4762 150.588 27.0524C150.588 25.6103 150.588 24.1774 150.588 22.7536C150.588 21.3115 150.588 19.8786 150.588 18.4548C150.588 17.0127 150.588 15.5706 150.588 14.1286H151.957L151.573 14.95C151.738 15.1508 151.838 15.379 151.875 15.6345C151.929 15.8901 151.957 16.1821 151.957 16.5107C151.957 17.9345 151.957 19.3857 151.957 20.8643C151.957 22.3429 151.957 23.8488 151.957 25.3821C151.957 26.8972 151.957 28.4306 151.957 29.9821C151.957 30.4932 151.966 30.9952 151.984 31.4881C152.021 31.9627 152.075 32.4373 152.148 32.9119ZM149.219 13.6905C150.551 13.4714 151.71 13.3254 152.696 13.2524C153.682 13.1794 154.576 13.1429 155.379 13.1429C156.383 13.1429 157.26 13.2341 158.008 13.4167C158.775 13.5809 159.423 13.8274 159.952 14.1559C160.5 14.4663 160.938 14.8587 161.266 15.3333C161.595 15.8079 161.832 16.3556 161.978 16.9762C162.143 17.5786 162.225 18.2448 162.225 18.975V19.6321C162.225 20.7821 161.978 21.85 161.485 22.8357C160.993 23.8214 160.326 24.6885 159.487 25.4369C158.665 26.1671 157.734 26.7421 156.694 27.1619C155.653 27.5817 154.585 27.7917 153.49 27.7917C153.143 27.7917 152.86 27.7552 152.641 27.6821C152.441 27.5909 152.267 27.4722 152.121 27.3262L151.628 27.5179V26.1762C151.884 26.2675 152.13 26.3313 152.368 26.3679C152.623 26.4044 152.933 26.4226 153.298 26.4226C154.284 26.4226 155.224 26.2492 156.119 25.9024C157.031 25.5556 157.844 25.0718 158.556 24.4512C159.268 23.8306 159.824 23.1004 160.226 22.2607C160.646 21.421 160.856 20.5083 160.856 19.5226V19.1119C160.856 18.4913 160.792 17.898 160.664 17.3321C160.554 16.7663 160.363 16.2552 160.089 15.7988C159.468 15.3242 158.82 14.9956 158.145 14.8131C157.469 14.6123 156.575 14.5119 155.462 14.5119C154.622 14.5119 153.81 14.5575 153.025 14.6488C152.258 14.7401 151.601 14.8313 151.053 14.9226C150.506 15.0139 150.141 15.0595 149.958 15.0595C149.684 15.0595 149.493 14.9682 149.383 14.7857C149.273 14.5849 149.219 14.3111 149.219 13.9643C149.219 13.9278 149.219 13.8821 149.219 13.8274C149.219 13.7726 149.219 13.727 149.219 13.6905Z" fill="white"/>
<defs>
<linearGradient id="paint0_linear_29_1180" x1="23" y1="0" x2="23" y2="46" gradientUnits="userSpaceOnUse">
<stop stop-color="#6A2DB1"/>
<stop offset="1" stop-color="#4711E3"/>
</linearGradient>
</defs>
</svg>