<svg width="22" height="22" viewBox="0 0 22 22" fill="none" xmlns="http://www.w3.org/2000/svg">
<path d="M1 1L21 21M5.71277 5.7226C2.66479 7.79527 1 11 1 11C1 11 4.63636 18 11 18C13.0503 18 14.8174 17.2734 16.2711 16.2884M10 4.05822C10.3254 4.02013 10.6588 4 11 4C17.3636 4 21 11 21 11C21 11 20.3082 12.3317 19 13.8335M13 13.2362C12.4692 13.7112 11.7684 14.0001 11 14.0001C9.3431 14.0001 8 12.657 8 11.0001C8 10.1764 8.33193 9.4303 8.86932 8.88818" stroke="url(#paint0_linear_152_6)" stroke-linecap="round" stroke-linejoin="round"/>
<defs>
<linearGradient id="paint0_linear_152_6" x1="11" y1="1" x2="11" y2="21" gradientUnits="userSpaceOnUse">
<stop stop-color="#6A2DB1"/>
<stop offset="1" stop-color="#4711E3"/>
</linearGradient>
</defs>
</svg>