<svg width="270" height="82" viewBox="0 0 270 82" fill="none" xmlns="http://www.w3.org/2000/svg">
<path d="M259.563 0H10.4369C4.67276 0 0 4.64944 0 10.3848V71.3152C0 77.0506 4.67276 81.7 10.4369 81.7H259.563C265.327 81.7 270 77.0506 270 71.3152V10.3848C270 4.64944 265.327 0 259.563 0Z" fill="black"/>
<path d="M188.496 49.2901H175.499L173.105 56H169L179.776 26H184.266L195 56H190.894L188.496 49.2901ZM187.384 46.084L181.997 30.8458L176.608 46.084H187.384Z" fill="white"/>
<path d="M217.321 41.0006C215.532 42.6515 212.804 43.4766 209.138 43.4758H203.097V56H199V26H209.136C212.682 26 215.379 26.8179 217.228 28.4536C219.076 30.0893 220 32.1983 220 34.7806C220.002 37.2778 219.108 39.3512 217.321 41.0006ZM214.187 38.827C215.27 37.8798 215.811 36.5309 215.81 34.7806C215.81 31.0795 213.584 29.2286 209.132 29.2278H203.091V40.248H209.136C211.421 40.248 213.105 39.7743 214.187 38.827Z" fill="white"/>
<path d="M240.972 56L228.846 42.3121V56H225V26H228.846V39.9019L241.014 26H245.874L232.522 41.0211L246 56H240.972Z" fill="white"/>
<path d="M165 50H159V56H165V50Z" fill="white"/>
<path d="M31.7394 35.7811C32.7632 36.2725 33.6082 37.0578 34.1608 38.0315C34.7195 39.0103 34.9993 40.1757 35 41.5278C35 42.867 34.7203 44.0232 34.1608 44.9963C33.6069 45.9645 32.7617 46.7436 31.7394 47.2285C30.6833 47.7428 29.4182 48 27.9442 48H24V35H27.9442C29.4189 35 30.684 35.2604 31.7394 35.7811ZM32.1876 45.4985C33.1575 44.5496 33.6425 43.2264 33.6425 41.5289C33.6425 39.8192 33.1564 38.4831 32.1843 37.5207C31.2121 36.5583 29.7991 36.0778 27.9453 36.0792H25.3323V46.9218H27.9453C29.8006 46.9211 31.2146 46.4467 32.1876 45.4985Z" fill="white"/>
<path d="M39.6707 47.3247C38.8466 46.876 38.1691 46.2112 37.7157 45.4063C37.2386 44.5779 37 43.609 37 42.4994C37 41.3899 37.2421 40.4213 37.7262 39.5937C38.1863 38.7872 38.8705 38.1225 39.7008 37.6753C40.5595 37.2195 41.525 36.9871 42.5035 37.0006C43.4849 36.9878 44.4531 37.2202 45.3154 37.6753C46.1463 38.1198 46.8293 38.7854 47.2843 39.5937C47.7614 40.4228 48 41.3914 48 42.4994C48 43.5962 47.7583 44.5618 47.275 45.3962C46.8126 46.2105 46.1203 46.8796 45.2795 47.3247C44.4131 47.779 43.4417 48.0112 42.4571 47.9994C41.4838 48.013 40.5235 47.7805 39.6707 47.3247ZM44.4781 46.3262C45.1123 45.9931 45.6348 45.4904 45.9837 44.8778C46.3697 44.2323 46.5628 43.4395 46.5628 42.4994C46.5628 41.5594 46.3747 40.7669 45.9987 40.1222C45.655 39.505 45.1329 38.9988 44.4966 38.666C43.8763 38.3452 43.1831 38.1801 42.4803 38.1858C41.7779 38.1801 41.0851 38.3452 40.4651 38.666C39.8348 38.9964 39.3191 39.5003 38.9827 40.1143C38.6137 40.7598 38.4292 41.5522 38.4292 42.4916C38.4292 43.4309 38.6137 44.2237 38.9827 44.8699C39.3175 45.4817 39.8292 45.9851 40.4547 46.3183C41.0714 46.6388 41.7612 46.8036 42.4606 46.7973C43.1635 46.8038 43.8569 46.64 44.4781 46.3205V46.3262Z" fill="white"/>
<path d="M65 37L61.5146 48H60.0944L57.0176 38.7693L53.9407 48H52.4843L49 37H50.4459L53.2184 46.5723L56.3362 37H57.7622L60.839 46.592L63.5904 37H65Z" fill="white"/>
<path d="M74.8327 38.1945C75.6102 38.9927 75.9993 40.1501 76 41.6669V48H74.7018V41.8249C74.7018 40.6515 74.4223 39.7545 73.8633 39.1337C73.3044 38.5128 72.5417 38.2028 71.5752 38.2036C70.5842 38.2036 69.7934 38.5337 69.2027 39.1939C68.612 39.8541 68.317 40.8236 68.3177 42.1024V48H67V37.1985H68.3177V39.0381C68.6302 38.3936 69.1234 37.8653 69.7306 37.5248C70.3743 37.1681 71.0932 36.9879 71.8208 37.0006C73.0469 36.9984 74.0509 37.3963 74.8327 38.1945Z" fill="white"/>
<path d="M81 34V48H79V34H81Z" fill="white"/>
<path d="M85.6707 47.3247C84.8466 46.876 84.1691 46.2112 83.7158 45.4063C83.2386 44.5779 83 43.609 83 42.4994C83 41.3899 83.2421 40.4213 83.7262 39.5937C84.1863 38.7872 84.8705 38.1225 85.7008 37.6753C86.5595 37.2195 87.525 36.9871 88.5035 37.0006C89.4849 36.9878 90.4531 37.2202 91.3154 37.6753C92.1463 38.1198 92.8293 38.7854 93.2843 39.5937C93.7614 40.4228 94 41.3914 94 42.4994C94 43.5962 93.7583 44.5618 93.275 45.3962C92.8125 46.2108 92.1197 46.88 91.2784 47.3247C90.4125 47.7792 89.4414 48.0115 88.4572 47.9994C87.4838 48.013 86.5235 47.7805 85.6707 47.3247ZM90.4781 46.3262C91.1123 45.9931 91.6348 45.4904 91.9837 44.8778C92.3697 44.2323 92.5628 43.4395 92.5628 42.4994C92.5628 41.5594 92.3747 40.7669 91.9987 40.1222C91.6565 39.5093 91.1383 39.0061 90.5071 38.6738C89.8867 38.353 89.1936 38.188 88.4908 38.1937C87.7883 38.188 87.0955 38.353 86.4756 38.6738C85.8453 39.0043 85.3295 39.5082 84.9932 40.1222C84.6233 40.7677 84.4388 41.5601 84.4396 42.4994C84.4404 43.4388 84.6249 44.2316 84.9932 44.8778C85.328 45.4895 85.8396 45.993 86.4652 46.3262C87.0818 46.6467 87.7716 46.8114 88.471 46.8052C89.1691 46.8067 89.8567 46.6402 90.4723 46.3205L90.4781 46.3262Z" fill="white"/>
<path d="M96.6736 39.5938C97.0951 38.7929 97.7444 38.127 98.5441 37.6754C99.3674 37.219 100.301 36.986 101.249 37.0006C102.295 37.0006 103.196 37.2357 103.953 37.7057C104.672 38.1331 105.242 38.7596 105.592 39.5049V37.157H107V47.8399H105.592V45.475C105.229 46.2212 104.653 46.8498 103.933 47.2855C103.175 47.7608 102.274 47.9988 101.228 47.9995C100.286 48.0121 99.3584 47.7754 98.5441 47.3147C97.7435 46.8557 97.0945 46.1834 96.6736 45.3772C96.2238 44.5413 95.9992 43.5757 96 42.4804C96.0008 41.3852 96.2253 40.4229 96.6736 39.5938ZM105.049 40.2292C104.712 39.6015 104.199 39.0792 103.571 38.7223C102.945 38.3694 102.233 38.1868 101.51 38.1938C100.779 38.1822 100.058 38.3579 99.4187 38.7032C98.7958 39.0478 98.2893 39.5611 97.9606 40.1808C97.6048 40.8262 97.4272 41.5928 97.428 42.4804C97.4095 43.2778 97.5924 44.0675 97.9606 44.7801C98.2864 45.4092 98.7929 45.9327 99.4187 46.2869C100.056 46.6382 100.778 46.8172 101.51 46.8053C102.233 46.8128 102.945 46.6302 103.571 46.2768C104.2 45.9201 104.712 45.3978 105.049 44.7699C105.423 44.0696 105.61 43.2887 105.592 42.4995C105.611 41.7108 105.426 40.93 105.054 40.2292H105.049Z" fill="white"/>
<path d="M109.684 39.9604C110.111 39.1955 110.763 38.5592 111.564 38.1259C112.387 37.6897 113.321 37.4669 114.268 37.4808C115.188 37.4699 116.093 37.6969 116.883 38.1367C117.621 38.5343 118.216 39.1267 118.593 39.8389V34H120V47.8499H118.593V45.566C118.245 46.2908 117.67 46.901 116.943 47.3166C116.179 47.7711 115.281 47.9987 114.249 47.9994C113.3 48.0133 112.365 47.7869 111.544 47.3446C110.744 46.9053 110.095 46.2625 109.674 45.4918C109.225 44.6925 109 43.7691 109 42.7218C109 41.6744 109.228 40.754 109.684 39.9604ZM118.05 40.568C117.712 39.968 117.199 39.4686 116.571 39.1271C115.945 38.7896 115.233 38.615 114.51 38.6217C113.779 38.6107 113.058 38.7787 112.419 39.1088C111.796 39.4383 111.289 39.9292 110.961 40.5217C110.606 41.1389 110.429 41.872 110.428 42.7207C110.41 43.4832 110.593 44.2382 110.961 44.9197C111.287 45.5211 111.793 46.0216 112.419 46.3606C113.056 46.6964 113.778 46.8676 114.51 46.8564C115.233 46.8635 115.945 46.6889 116.571 46.3509C117.2 46.0097 117.712 45.5103 118.05 44.91C118.423 44.2402 118.61 43.4936 118.593 42.739C118.611 41.9847 118.426 41.2382 118.053 40.568H118.05Z" fill="white"/>
<path d="M128.441 34.7562C128.298 34.6601 128.184 34.545 128.109 34.418C128.033 34.2911 127.996 34.155 128.001 34.018C127.995 33.8825 128.031 33.7478 128.107 33.6224C128.183 33.497 128.297 33.3838 128.441 33.2901C128.58 33.1961 128.746 33.122 128.928 33.0722C129.11 33.0224 129.305 32.9979 129.501 33.0001C129.697 32.998 129.891 33.0226 130.073 33.0724C130.255 33.1222 130.42 33.1963 130.558 33.2901C130.703 33.3838 130.817 33.497 130.893 33.6224C130.969 33.7478 131.005 33.8825 130.999 34.018C131.004 34.155 130.967 34.2911 130.891 34.418C130.816 34.545 130.702 34.6601 130.558 34.7562C130.422 34.8524 130.257 34.9286 130.075 34.9801C129.893 35.0315 129.698 35.0572 129.501 35.0554C129.303 35.0573 129.108 35.0317 128.925 34.9802C128.743 34.9288 128.579 34.8525 128.441 34.7562ZM130.53 37.1106V48H128.47V37.1106H130.53Z" fill="white"/>
<path d="M141.702 38.1975C142.567 38.9955 143 40.1526 143 41.6689V48H141.558V41.8268C141.558 40.6538 141.247 39.757 140.626 39.1364C140.005 38.5158 139.157 38.2058 138.084 38.2066C136.982 38.2066 136.104 38.5366 135.447 39.1966C134.791 39.8567 134.463 40.8258 134.464 42.1042V48H133V37.2018H134.464V39.0409C134.812 38.3946 135.362 37.8652 136.039 37.5246C136.754 37.1681 137.553 36.9879 138.361 37.0006C139.724 37.0006 140.837 37.3996 141.702 38.1975Z" fill="white"/>
</svg>