<svg width="270" height="82" viewBox="0 0 270 82" fill="none" xmlns="http://www.w3.org/2000/svg">
<path d="M259.563 0H10.4369C4.67276 0 0 4.6493 0 10.3845V71.3129C0 77.0481 4.67276 81.6974 10.4369 81.6974H259.563C265.327 81.6974 270 77.0481 270 71.3129V10.3845C270 4.6493 265.327 0 259.563 0Z" fill="black"/>
<path d="M83.9687 23.389H76.5265L74.8926 26.9823H73.8854L79.7877 14.2149H80.7232L86.6255 26.9823H85.6183L83.9687 23.389ZM83.6206 22.6096L80.2476 15.2405L76.8903 22.6096H83.6206Z" fill="white"/>
<path d="M95.8627 17.4619L91.5362 26.9823H90.6017L86.2942 17.4619H87.2656L91.0785 25.979L94.9282 17.4619H95.8627Z" fill="white"/>
<path d="M103.525 18.2914C104.16 18.8927 104.478 19.7772 104.478 20.9449V26.9823H103.598V25.2853C103.293 25.8448 102.825 26.2993 102.255 26.5892C101.669 26.8995 100.966 27.0547 100.148 27.0547C99.0846 27.0547 98.2446 26.8053 97.6275 26.3064C97.329 26.0734 97.0897 25.7738 96.9289 25.4319C96.7682 25.0899 96.6904 24.7151 96.702 24.3377C96.702 23.5472 96.9859 22.9058 97.5537 22.4136C98.1215 21.9215 99.0291 21.675 100.276 21.6743H103.557V20.9082C103.557 20.0174 103.315 19.3426 102.833 18.8838C102.35 18.4251 101.644 18.1942 100.716 18.1912C100.093 18.1887 99.4749 18.3001 98.8921 18.5197C98.3488 18.7158 97.8479 19.0128 97.416 19.3949L96.9583 18.738C97.4615 18.297 98.0471 17.959 98.6817 17.7436C99.3586 17.5063 100.071 17.3861 100.789 17.3884C101.978 17.3884 102.89 17.6894 103.525 18.2914ZM102.305 25.7597C102.879 25.3734 103.318 24.8188 103.561 24.1729V22.3913H100.299C99.3573 22.3913 98.6762 22.5617 98.2554 22.9024C97.8346 23.2432 97.6234 23.7094 97.6219 24.301C97.6108 24.5833 97.6682 24.8641 97.7894 25.1196C97.9106 25.3751 98.0919 25.5977 98.318 25.7686C98.7828 26.1279 99.4368 26.3072 100.28 26.3064C101.074 26.3064 101.75 26.1242 102.305 25.7597Z" fill="white"/>
<path d="M108.181 14.9354C108.109 14.8693 108.052 14.7888 108.013 14.6992C107.974 14.6096 107.955 14.5128 107.957 14.4154C107.957 14.3171 107.976 14.2199 108.014 14.1292C108.052 14.0385 108.108 13.956 108.177 13.8866C108.247 13.8172 108.33 13.7622 108.421 13.7248C108.513 13.6873 108.61 13.6681 108.709 13.6682C108.807 13.6665 108.905 13.6841 108.996 13.7201C109.087 13.756 109.17 13.8095 109.241 13.8775C109.313 13.9436 109.37 14.0241 109.408 14.1137C109.447 14.2033 109.466 14.3001 109.464 14.3975C109.465 14.4957 109.446 14.593 109.408 14.6838C109.37 14.7746 109.315 14.8571 109.245 14.9265C109.175 14.996 109.092 15.051 109.001 15.0884C108.91 15.1259 108.812 15.145 108.714 15.1447C108.615 15.1469 108.517 15.1295 108.426 15.0936C108.334 15.0576 108.251 15.0038 108.181 14.9354ZM108.254 17.4619H109.17V26.9823H108.254V17.4619Z" fill="white"/>
<path d="M113.038 13.4488H113.954V26.9823H113.038V13.4488Z" fill="white"/>
<path d="M123.779 18.2914C124.415 18.8927 124.733 19.7772 124.733 20.9449V26.9823H123.853V25.2853C123.548 25.8446 123.079 26.299 122.51 26.5892C121.924 26.8995 121.221 27.0547 120.402 27.0547C119.338 27.0547 118.498 26.8053 117.881 26.3064C117.597 26.069 117.367 25.7737 117.207 25.4404C117.047 25.1071 116.96 24.7436 116.954 24.3743C116.947 24.0049 117.019 23.6384 117.167 23.2995C117.314 22.9605 117.533 22.6569 117.809 22.4092C118.376 21.9155 119.284 21.6691 120.53 21.6698H123.812V20.9037C123.812 20.0129 123.57 19.3381 123.088 18.8794C122.605 18.4206 121.899 18.1897 120.97 18.1868C120.347 18.1844 119.729 18.2957 119.146 18.5153C118.603 18.7113 118.102 19.0084 117.671 19.3905L117.212 18.7335C117.715 18.2925 118.301 17.9546 118.936 17.7392C119.613 17.5017 120.326 17.3816 121.044 17.3839C122.233 17.3869 123.144 17.6894 123.779 18.2914ZM122.56 25.7597C123.134 25.3734 123.573 24.8188 123.816 24.1729V22.3913H120.553C119.611 22.3913 118.93 22.5617 118.509 22.9024C118.088 23.2432 117.878 23.7094 117.878 24.301C117.867 24.5833 117.924 24.8641 118.045 25.1196C118.167 25.3751 118.348 25.5977 118.574 25.7686C119.038 26.1279 119.692 26.3072 120.536 26.3064C121.33 26.3064 122.005 26.1242 122.56 25.7597Z" fill="white"/>
<path d="M135.73 17.9997C136.445 18.4017 137.033 18.9955 137.426 19.7134C137.844 20.4832 138.055 21.3472 138.04 22.2221C138.056 23.0939 137.844 23.9548 137.426 24.7208C137.03 25.4363 136.443 26.0293 135.73 26.4345C134.994 26.8524 134.158 27.0665 133.311 27.0547C132.496 27.0655 131.694 26.854 130.992 26.4434C130.304 26.0397 129.748 25.448 129.388 24.7386V26.9823H128.51V13.4488H129.426V19.6321C129.79 18.9433 130.342 18.3714 131.02 17.983C131.716 17.5852 132.508 17.3806 133.311 17.3906C134.157 17.3784 134.992 17.5885 135.73 17.9997ZM135.236 25.7229C135.82 25.385 136.299 24.8929 136.62 24.301C136.951 23.6573 137.124 22.9446 137.124 22.2215C137.124 21.4985 136.951 20.7858 136.62 20.1421C136.299 19.5504 135.82 19.0584 135.236 18.7201C134.634 18.3754 133.95 18.1989 133.256 18.209C132.564 18.1981 131.883 18.3748 131.285 18.7201C130.705 19.0606 130.23 19.5523 129.911 20.1421C129.579 20.7856 129.406 21.4984 129.406 22.2215C129.406 22.9447 129.579 23.6575 129.911 24.301C130.23 24.8912 130.705 25.383 131.285 25.7229C131.883 26.0683 132.564 26.245 133.256 26.234C133.95 26.2442 134.634 26.0676 135.236 25.7229Z" fill="white"/>
<path d="M140.882 13.4488H141.798V26.9823H140.882V13.4488Z" fill="white"/>
<path d="M153.749 22.437H145.52C145.532 23.1348 145.728 23.8172 146.089 24.4157C146.436 24.9844 146.934 25.4467 147.528 25.7519C148.16 26.0745 148.862 26.2375 149.571 26.2262C150.166 26.233 150.755 26.1193 151.304 25.8922C151.823 25.6761 152.28 25.3343 152.633 24.8978L153.165 25.5002C152.743 26.0031 152.206 26.3973 151.598 26.6494C150.863 26.9462 150.072 27.0801 149.279 27.0416C148.487 27.0032 147.712 26.7933 147.01 26.4267C146.279 26.0272 145.673 25.434 145.26 24.713C144.829 23.9508 144.611 23.0883 144.627 22.2143C144.613 21.3479 144.818 20.4918 145.223 19.7245C145.599 19.0104 146.167 18.4138 146.863 18.0008C147.576 17.5958 148.383 17.3821 149.204 17.3805C150.025 17.379 150.832 17.5896 151.547 17.9919C152.238 18.3999 152.803 18.9898 153.178 19.6967C153.583 20.4607 153.788 21.3139 153.774 22.1776L153.749 22.437ZM147.388 18.6344C146.852 18.9311 146.405 19.3656 146.096 19.8927C145.766 20.451 145.574 21.0791 145.536 21.7255H152.867C152.842 21.081 152.653 20.4535 152.318 19.9016C151.995 19.3689 151.538 18.9301 150.991 18.6292C150.444 18.3284 149.827 18.1762 149.202 18.1879C148.569 18.1796 147.944 18.3346 147.388 18.6377V18.6344Z" fill="white"/>
<path d="M162.611 26.4345C161.891 26.0285 161.298 25.4318 160.897 24.7108C160.488 23.9442 160.274 23.0895 160.274 22.2215C160.274 21.3536 160.488 20.4988 160.897 19.7323C161.298 19.0112 161.891 18.4146 162.611 18.0086C163.362 17.6016 164.204 17.3884 165.058 17.3884C165.913 17.3884 166.755 17.6016 167.505 18.0086C168.225 18.415 168.818 19.0115 169.219 19.7323C169.628 20.4988 169.842 21.3536 169.842 22.2215C169.842 23.0895 169.628 23.9442 169.219 24.7108C168.818 25.4316 168.225 26.0281 167.505 26.4345C166.755 26.8414 165.913 27.0547 165.058 27.0547C164.204 27.0547 163.362 26.8414 162.611 26.4345ZM167.029 25.7229C167.609 25.3833 168.085 24.8914 168.403 24.301C168.735 23.6575 168.908 22.9447 168.908 22.2215C168.908 21.4984 168.735 20.7856 168.403 20.1421C168.084 19.5519 167.609 19.0601 167.029 18.7201C166.426 18.385 165.748 18.2091 165.058 18.2091C164.368 18.2091 163.689 18.385 163.087 18.7201C162.507 19.0606 162.032 19.5523 161.713 20.1421C161.382 20.7858 161.209 21.4985 161.209 22.2215C161.209 22.9446 161.382 23.6573 161.713 24.301C162.032 24.8916 162.509 25.3835 163.09 25.7229C163.693 26.058 164.371 26.234 165.061 26.234C165.751 26.234 166.43 26.058 167.032 25.7229H167.029Z" fill="white"/>
<path d="M180.198 18.4284C180.896 19.121 181.244 20.118 181.244 21.4193V26.9868H180.325V21.4916C180.325 20.4227 180.053 19.6083 179.509 19.0486C178.965 18.4889 178.205 18.2079 177.229 18.2057C176.104 18.2057 175.218 18.5398 174.572 19.2079C173.925 19.876 173.601 20.7757 173.6 21.907V26.9779H172.684V17.4574H173.563V19.5174C173.884 18.8581 174.399 18.3114 175.039 17.9496C175.693 17.5725 176.466 17.3839 177.358 17.3839C178.556 17.3869 179.502 17.7351 180.198 18.4284Z" fill="white"/>
<path d="M194.477 26.3799C194.228 26.6095 193.931 26.7807 193.607 26.881C193.255 26.9973 192.887 27.056 192.517 27.0547C191.685 27.0547 191.044 26.8268 190.592 26.371C190.14 25.9152 189.914 25.2798 189.914 24.4647V18.2458H188.159V17.4663H189.918V15.3819H190.835V17.4619H193.877V18.2413H190.835V24.3656C190.835 24.9862 190.984 25.4576 191.282 25.7797C191.581 26.1019 192.024 26.263 192.612 26.263C193.157 26.2826 193.688 26.0933 194.097 25.7341L194.477 26.3799Z" fill="white"/>
<path d="M204.542 18.4284C205.238 19.121 205.586 20.118 205.586 21.4193V26.9868H204.669V21.4916C204.669 20.4227 204.397 19.6083 203.853 19.0486C203.309 18.4889 202.549 18.2079 201.571 18.2057C200.447 18.2057 199.561 18.5398 198.914 19.2079C198.266 19.876 197.942 20.7757 197.942 21.907V26.9779H197.026V13.4488H197.942V19.4495C198.262 18.8037 198.774 18.2718 199.408 17.9262C200.056 17.5677 200.82 17.3884 201.7 17.3884C202.894 17.3884 203.841 17.7351 204.542 18.4284Z" fill="white"/>
<path d="M217.464 22.437H209.233C209.245 23.1348 209.441 23.8172 209.801 24.4157C210.148 24.9844 210.646 25.4467 211.241 25.7519C211.872 26.0745 212.574 26.2375 213.284 26.2262C213.878 26.233 214.468 26.1193 215.017 25.8922C215.536 25.6761 215.993 25.3343 216.346 24.8978L216.878 25.5002C216.456 26.0031 215.918 26.3973 215.311 26.6494C214.576 26.9462 213.784 27.0801 212.992 27.0416C212.2 27.0032 211.425 26.7933 210.722 26.4267C209.991 26.0272 209.385 25.434 208.972 24.713C208.542 23.9508 208.324 23.0883 208.34 22.2143C208.326 21.3479 208.53 20.4918 208.935 19.7245C209.312 19.0104 209.88 18.4138 210.576 18.0008C211.289 17.5958 212.095 17.3821 212.916 17.3805C213.737 17.379 214.545 17.5896 215.259 17.9919C215.951 18.3999 216.515 18.9898 216.891 19.6967C217.296 20.4607 217.501 21.3139 217.486 22.1776L217.464 22.437ZM211.101 18.6377C210.564 18.9344 210.118 19.369 209.808 19.896C209.479 20.4544 209.287 21.0825 209.249 21.7288H216.584C216.559 21.0844 216.37 20.4568 216.035 19.9049C215.713 19.3722 215.255 18.9334 214.708 18.6326C214.161 18.3318 213.544 18.1795 212.919 18.1912C212.284 18.1811 211.658 18.335 211.101 18.6377Z" fill="white"/>
<path d="M88.4866 49.3503H92.2502V57.8463C91.0992 58.7455 89.792 59.4267 88.3937 59.8561C86.9289 60.3221 85.4002 60.5584 83.8624 60.5565C81.6778 60.5565 79.7086 60.0844 77.9545 59.1402C76.2421 58.2374 74.8123 56.8834 73.8216 55.2262C72.8211 53.5612 72.3209 51.6827 72.3209 49.5908C72.3209 47.4989 72.8211 45.6208 73.8216 43.9565C74.8157 42.2969 76.2509 40.9425 77.9691 40.0425C79.7336 39.0983 81.7185 38.6262 83.9239 38.6262C85.719 38.6262 87.3518 38.9205 88.8223 39.5092C90.2464 40.0668 91.5163 40.9543 92.5266 42.0981L90.0119 44.5377C88.3795 42.9135 86.4102 42.101 84.1041 42.1003C82.5933 42.1003 81.2503 42.415 80.0753 43.0445C78.9244 43.6522 77.9694 44.5708 77.32 45.6947C76.6567 46.8327 76.3251 48.1317 76.3251 49.5919C76.3048 50.9369 76.6484 52.2626 77.32 53.4301C77.9732 54.5587 78.9266 55.4861 80.0753 56.1103C81.2481 56.7606 82.5799 57.0858 84.0705 57.0858C85.744 57.0858 87.2134 56.7202 88.4787 55.989L88.4866 49.3503Z" fill="white"/>
<path d="M99.9967 59.4052C98.7016 58.7246 97.6247 57.6955 96.8889 56.4355C96.1428 55.1661 95.7698 53.7293 95.7698 52.1251C95.7698 50.5209 96.1428 49.0893 96.8889 47.8303C97.6282 46.5767 98.7045 45.5532 99.9967 44.8751C101.323 44.1647 102.812 43.8095 104.466 43.8095C106.139 43.8095 107.639 44.1647 108.966 44.8751C110.257 45.5521 111.333 46.5735 112.073 47.8248C112.819 49.0867 113.192 50.5183 113.192 52.1195C113.192 53.7208 112.819 55.1575 112.073 56.4299C111.338 57.6917 110.262 58.7227 108.966 59.4052C107.639 60.1156 106.139 60.4708 104.466 60.4708C102.813 60.4686 101.323 60.1134 99.9967 59.4052ZM107.956 55.8108C108.875 54.8762 109.334 53.6476 109.334 52.1251C109.333 50.6026 108.874 49.374 107.956 48.4394C107.037 47.5048 105.874 47.0379 104.466 47.0387C103.059 47.0394 101.9 47.5063 100.992 48.4394C100.083 49.374 99.6289 50.6026 99.6296 52.1251C99.6304 53.6476 100.084 54.8762 100.992 55.8108C101.9 56.7454 103.058 57.2123 104.466 57.2116C105.875 57.2108 107.038 56.7428 107.956 55.8075V55.8108Z" fill="white"/>
<path d="M119.741 59.4052C118.447 58.7245 117.37 57.6955 116.635 56.4355C115.889 55.1661 115.516 53.7293 115.516 52.1251C115.516 50.5209 115.889 49.0893 116.635 47.8303C117.374 46.5767 118.45 45.5532 119.741 44.8751C121.069 44.1647 122.559 43.8095 124.211 43.8095C125.884 43.8095 127.384 44.1647 128.711 44.8751C130.003 45.5517 131.079 46.5732 131.819 47.8248C132.565 49.0867 132.938 50.5183 132.938 52.1195C132.938 53.7208 132.565 55.1575 131.819 56.4299C131.084 57.692 130.007 58.723 128.711 59.4052C127.385 60.1156 125.885 60.4708 124.211 60.4708C122.559 60.4686 121.069 60.1134 119.741 59.4052ZM127.702 55.8108C128.619 54.8762 129.079 53.6476 129.079 52.1251C129.08 50.6026 128.621 49.374 127.702 48.4394C126.782 47.5048 125.619 47.0379 124.211 47.0387C122.803 47.0394 121.647 47.5063 120.742 48.4394C119.835 49.374 119.381 50.6026 119.38 52.1251C119.379 53.6476 119.833 54.8762 120.742 55.8108C121.651 56.7454 122.807 57.2123 124.211 57.2116C125.615 57.2108 126.779 56.7428 127.702 55.8075V55.8108Z" fill="white"/>
<path d="M152.835 43.9888V57.7873C152.835 63.5136 149.896 66.3768 144.017 66.3768C142.507 66.385 141.003 66.1849 139.549 65.7822C138.139 65.3873 136.976 64.8138 136.058 64.0618L137.773 61.199C138.487 61.7869 139.39 62.2591 140.482 62.6154C141.554 62.9667 142.675 63.1464 143.804 63.1476C145.6 63.1476 146.917 62.7416 147.753 61.9295C148.589 61.1174 149.007 59.8788 149.007 58.2137V57.3608C148.348 58.0752 147.531 58.6278 146.62 58.9754C145.633 59.3492 144.584 59.535 143.528 59.5232C141.977 59.5232 140.574 59.1932 139.318 58.5333C138.088 57.8975 137.06 56.9336 136.349 55.7495C135.625 54.5514 135.262 53.1807 135.262 51.6374C135.262 50.0941 135.625 48.7286 136.349 47.5408C137.061 46.3644 138.089 45.4095 139.318 44.7838C140.574 44.135 141.977 43.8102 143.528 43.8095C144.632 43.7955 145.729 43.992 146.758 44.3885C147.708 44.7601 148.545 45.3682 149.191 46.1545V43.9888H152.835ZM147.676 55.0002C148.605 54.1376 149.069 53.0155 149.069 51.6341C149.069 50.2741 148.605 49.1677 147.676 48.3147C146.747 47.4618 145.558 47.0353 144.109 47.0353C142.641 47.0353 141.442 47.4618 140.512 48.3147C139.583 49.1677 139.119 50.2741 139.12 51.6341C139.12 53.0163 139.584 54.1383 140.512 55.0002C141.44 55.862 142.639 56.2933 144.109 56.2941C145.558 56.2941 146.747 55.8628 147.676 55.0002Z" fill="white"/>
<path d="M157.854 37.653H161.682V60.257H157.854V37.653Z" fill="white"/>
<path d="M182.004 53.3399H169.181C169.371 54.4819 170.003 55.5044 170.941 56.1883C171.89 56.8883 173.069 57.2383 174.478 57.2383C176.273 57.2383 177.752 56.6496 178.916 55.4723L180.967 57.8173C180.22 58.6992 179.262 59.3801 178.182 59.7971C177.063 60.2425 175.797 60.4652 174.386 60.4652C172.589 60.4652 171.007 60.11 169.641 59.3996C168.32 58.7326 167.22 57.7018 166.471 56.4299C165.725 55.1605 165.352 53.7237 165.352 52.1195C165.352 50.5347 165.714 49.1079 166.439 47.8393C167.147 46.5878 168.194 45.559 169.461 44.8696C170.745 44.1591 172.194 43.8039 173.807 43.8039C175.399 43.8039 176.822 44.1543 178.078 44.8551C179.319 45.5424 180.339 46.567 181.017 47.8092C181.72 49.0786 182.072 50.5458 182.073 52.2109C182.07 52.477 182.048 52.8522 182.004 53.3399ZM170.7 47.9361C169.853 48.6569 169.338 49.6164 169.155 50.8145H178.422C178.258 49.6364 177.758 48.6818 176.922 47.9506C176.085 47.2194 175.045 46.8538 173.799 46.8538C172.578 46.8523 171.545 47.2131 170.7 47.9361Z" fill="white"/>
<path d="M208.228 39.8466C209.606 40.456 210.662 41.329 211.396 42.4655C212.13 43.602 212.498 44.9527 212.498 46.5175C212.498 48.0608 212.131 49.4059 211.396 50.5529C210.661 51.6998 209.605 52.5779 208.228 53.1874C206.85 53.7968 205.232 54.1016 203.375 54.1016H198.539V60.2548H194.559V38.9324H203.379C205.234 38.9324 206.85 39.2371 208.228 39.8466ZM207.141 49.6543C208.037 48.9238 208.484 47.8782 208.484 46.5175C208.484 45.1568 208.037 44.1109 207.141 43.3797C206.246 42.6478 204.93 42.2822 203.192 42.2829H198.539V50.7455H203.192C204.927 50.7492 206.243 50.3855 207.141 49.6543Z" fill="white"/>
<path d="M216.417 37.653H220.244V60.257H216.417V37.653Z" fill="white"/>
<path d="M237.034 45.5276C238.31 46.6745 238.948 48.4057 238.948 50.721V60.2548H235.335V58.275C234.844 59.0038 234.146 59.5708 233.33 59.904C232.463 60.2796 231.418 60.4674 230.196 60.4674C228.974 60.4674 227.902 60.2592 226.981 59.8428C226.122 59.4751 225.385 58.8733 224.855 58.1068C224.354 57.3643 224.093 56.4877 224.105 55.5937C224.105 54.132 224.651 52.9595 225.742 52.0761C226.834 51.1927 228.553 50.7511 230.901 50.7511H235.126V50.5072C235.126 49.3699 234.784 48.497 234.1 47.8883C233.416 47.2795 232.401 46.9748 231.055 46.9741C230.135 46.9744 229.22 47.1183 228.345 47.4005C227.525 47.6484 226.761 48.0518 226.095 48.5886L224.595 45.816C225.524 45.1316 226.572 44.6256 227.687 44.3239C228.932 43.9731 230.22 43.7988 231.513 43.8062C233.919 43.8062 235.759 44.38 237.034 45.5276ZM233.545 57.0412C234.276 56.621 234.834 55.9573 235.121 55.1672V53.2809H231.172C228.967 53.2809 227.866 54.0021 227.866 55.4445C227.857 55.7651 227.927 56.0832 228.071 56.3702C228.215 56.6572 228.429 56.9042 228.692 57.0891C229.244 57.4959 230.009 57.6989 230.989 57.6982C231.885 57.7138 232.768 57.4867 233.545 57.0412Z" fill="white"/>
<path d="M258.847 43.9888L251.193 61.5642C250.479 63.3303 249.612 64.574 248.591 65.2956C247.571 66.0171 246.336 66.3775 244.887 66.3768C244.065 66.3757 243.248 66.2418 242.469 65.9804C241.745 65.7572 241.077 65.3838 240.509 64.8847L242.04 62.0776C242.418 62.4301 242.86 62.7089 243.341 62.8993C243.822 63.099 244.336 63.2027 244.857 63.2044C245.528 63.2044 246.084 63.0318 246.524 62.6866C246.964 62.3415 247.368 61.7628 247.734 60.9507L248.009 60.3104L240.876 43.9843H244.857L249.999 56.0157L255.173 43.9843L258.847 43.9888Z" fill="white"/>
<path d="M64.9683 39.8076L54.6813 33.906L46.2208 42.0346L53.9528 49.4716L64.9683 43.1481C65.2627 42.9786 65.5071 42.7351 65.677 42.4419C65.8469 42.1487 65.9364 41.8163 65.9364 41.4778C65.9364 41.1394 65.8469 40.8069 65.677 40.5138C65.5071 40.2206 65.2627 39.9771 64.9683 39.8076Z" fill="white"/>
<path d="M52.9355 32.8961L41.6145 26.3944L16.8058 13.745L44.8263 40.695L52.9355 32.8961Z" fill="white"/>
<path d="M17.2177 69.9311L41.657 56.5368L52.2069 50.4771L44.8263 43.3786L17.2177 69.9311Z" fill="white"/>
<path d="M15.1506 14.8351L15.1238 69.263L43.4319 42.0357L15.1506 14.8351Z" fill="white"/>
</svg>