<svg width="218" height="62" viewBox="0 0 218 62" fill="none" xmlns="http://www.w3.org/2000/svg">
<path d="M0.248929 13.0863C-0.0335033 7.25335 4.46606 2.29587 10.299 2.01344L49.0243 0.138349C54.8572 -0.144084 59.8147 4.35548 60.0971 10.1884L61.9722 48.9137C62.2547 54.7466 57.7551 59.7041 51.9222 59.9866L13.1969 61.8616C7.36393 62.1441 2.40646 57.6445 2.12402 51.8116L0.248929 13.0863Z" fill="url(#paint0_linear_0_1)"/>
<path fill-rule="evenodd" clip-rule="evenodd" d="M40.2067 39.9122C40.1895 39.5398 40.4775 39.224 40.8499 39.2068L48.4651 38.8555C48.8376 38.8383 49.1534 39.1263 49.1706 39.4987L49.5219 47.1139C49.5391 47.4864 49.2511 47.8022 48.8787 47.8194L41.2634 48.1707C40.891 48.1879 40.5752 47.8999 40.558 47.5275L40.2067 39.9122ZM26.7608 40.5325C26.7437 40.1601 27.0316 39.8443 27.404 39.8271L35.0193 39.4758C35.3917 39.4586 35.7076 39.7466 35.7247 40.119L36.0761 47.7342C36.0932 48.1067 35.8053 48.4225 35.4328 48.4397L27.8176 48.791C27.4452 48.8082 27.1293 48.5202 27.1122 48.1478L26.7608 40.5325ZM13.315 41.1528C13.2978 40.7804 13.5858 40.4646 13.9582 40.4474L21.5735 40.0961C21.9459 40.0789 22.2617 40.3669 22.2789 40.7393L22.6302 48.3546C22.6474 48.727 22.3594 49.0428 21.987 49.06L14.3718 49.4113C13.9993 49.4285 13.6835 49.1405 13.6663 48.7681L13.315 41.1528ZM39.5864 26.4664C39.5692 26.094 39.8572 25.7781 40.2296 25.761L47.8448 25.4096C48.2173 25.3925 48.5331 25.6804 48.5503 26.0528L48.9016 33.6681C48.9188 34.0405 48.6308 34.3564 48.2584 34.3735L40.6431 34.7249C40.2707 34.742 39.9549 34.4541 39.9377 34.0816L39.5864 26.4664ZM26.1405 27.0867C26.1234 26.7143 26.4113 26.3984 26.7837 26.3813L34.399 26.0299C34.7714 26.0128 35.0872 26.3007 35.1044 26.6732L35.4557 34.2884C35.4729 34.6608 35.185 34.9767 34.8125 34.9938L27.1973 35.3452C26.8249 35.3623 26.509 35.0744 26.4919 34.702L26.1405 27.0867ZM12.6947 27.707C12.6775 27.3346 12.9655 27.0188 13.3379 27.0016L20.9532 26.6503C21.3256 26.6331 21.6414 26.921 21.6586 27.2935L22.0099 34.9087C22.0271 35.2811 21.7391 35.597 21.3667 35.6141L13.7514 35.9655C13.379 35.9826 13.0632 35.6947 13.046 35.3223L12.6947 27.707ZM38.9661 13.0206C38.9489 12.6481 39.2369 12.3323 39.6093 12.3151L47.2245 11.9638C47.5969 11.9466 47.9128 12.2346 47.93 12.607L48.2813 20.2223C48.2985 20.5947 48.0105 20.9105 47.6381 20.9277L40.0228 21.279C39.6504 21.2962 39.3346 21.0082 39.3174 20.6358L38.9661 13.0206ZM25.5202 13.6409C25.503 13.2684 25.791 12.9526 26.1634 12.9354L33.7787 12.5841C34.1511 12.5669 34.4669 12.8549 34.4841 13.2273L34.8354 20.8426C34.8526 21.215 34.5646 21.5308 34.1922 21.548L26.577 21.8993C26.2046 21.9165 25.8887 21.6285 25.8716 21.2561L25.5202 13.6409ZM12.0744 14.2612C12.0572 13.8887 12.3452 13.5729 12.7176 13.5557L20.3329 13.2044C20.7053 13.1872 21.0211 13.4752 21.0383 13.8476L21.3896 21.4629C21.4068 21.8353 21.1188 22.1511 20.7464 22.1683L13.1311 22.5196C12.7587 22.5368 12.4429 22.2488 12.4257 21.8764L12.0744 14.2612Z" fill="white"/>
<path d="M93.5546 44.5954C93.4077 44.6689 93.1995 44.718 92.9302 44.7425C92.6853 44.7915 92.4159 44.8161 92.1221 44.8161C91.6568 44.8161 91.2038 44.7302 90.7631 44.5586C90.3468 44.4114 90.004 44.1539 89.7346 43.7861C89.4897 43.4183 89.3673 42.9401 89.3673 42.3515C89.3673 40.6839 89.3673 39.0286 89.3673 37.3856C89.3673 35.718 89.3673 34.0627 89.3673 32.4196C89.3673 30.752 89.3673 29.0967 89.3673 27.4537C89.3673 25.7861 89.3673 24.1185 89.3673 22.451C89.3673 21.7888 89.3306 21.1512 89.2571 20.5381C89.1837 19.9005 89.0979 19.2997 89 18.7357C89.2694 18.6621 89.5265 18.6131 89.7713 18.5886C90.0407 18.5395 90.2978 18.515 90.5427 18.515C90.7876 18.4905 91.0324 18.4782 91.2773 18.4782C91.9874 18.4782 92.5751 18.564 93.0404 18.7357C93.5301 18.8828 93.9219 19.1526 94.2157 19.545C94.5096 19.9128 94.7177 20.4278 94.8402 21.0899C94.9871 21.8256 95.1462 22.5736 95.3177 23.3338C95.4891 24.094 95.6727 24.8542 95.8686 25.6144C96.0645 26.3501 96.2971 27.0858 96.5665 27.8215C96.8359 28.5327 97.1419 29.2439 97.4848 29.955C97.8276 30.6417 98.2071 31.3283 98.6234 32.015L97.1909 31.0218H99.1744L97.7051 31.9782C98.1214 31.3161 98.5132 30.6294 98.8805 29.9183C99.2478 29.1826 99.5784 28.4101 99.8722 27.6008C100.166 26.767 100.435 25.8965 100.68 24.9891C100.925 24.0572 101.133 23.0763 101.305 22.0463C101.501 21.0163 101.648 19.9128 101.746 18.7357C101.941 18.6621 102.137 18.6131 102.333 18.5886C102.554 18.564 102.762 18.5395 102.958 18.515C103.154 18.4905 103.374 18.4782 103.619 18.4782C104.402 18.4782 105.027 18.5763 105.492 18.7725C105.957 18.9441 106.3 19.2507 106.52 19.6921C106.741 20.109 106.851 20.6975 106.851 21.4578C106.851 22.4632 106.851 23.4809 106.851 24.5109C106.851 25.5409 106.851 26.5954 106.851 27.6744C106.851 28.7289 106.851 29.7956 106.851 30.8747C106.851 31.9537 106.851 33.045 106.851 34.1485C106.851 35.252 106.851 36.3556 106.851 37.4591C106.851 38.5627 106.851 39.6662 106.851 40.7698C106.851 41.2112 106.863 41.6526 106.888 42.094C106.912 42.5354 106.949 42.9646 106.998 43.3815C107.047 43.7738 107.12 44.1662 107.218 44.5586C106.973 44.6321 106.741 44.6935 106.52 44.7425C106.3 44.7915 106.006 44.8161 105.639 44.8161C105.149 44.8161 104.672 44.7302 104.206 44.5586C103.766 44.3869 103.398 44.1049 103.105 43.7125C102.811 43.3202 102.664 42.7929 102.664 42.1308C102.664 41.7384 102.664 41.346 102.664 40.9537C102.664 40.5368 102.664 40.1322 102.664 39.7398C102.664 39.3474 102.664 38.955 102.664 38.5627C102.664 38.0477 102.664 37.5204 102.664 36.9809C102.688 36.4169 102.7 35.8161 102.7 35.1785C102.725 34.5409 102.749 33.8665 102.774 33.1553C102.823 32.4441 102.884 31.6594 102.958 30.8011C103.031 29.9428 103.105 29.0109 103.178 28.0054C103.276 27 103.398 25.8965 103.545 24.6948L104.28 25.8719H102.37L103.509 24.658C103.215 25.7616 102.909 26.8038 102.59 27.7847C102.296 28.7657 101.978 29.673 101.635 30.5068C101.292 31.3406 100.937 32.1008 100.57 32.7875C100.227 33.4741 99.8722 34.0995 99.5049 34.6635C99.1376 35.203 98.7581 35.6567 98.3663 36.0245C98.3173 36.0245 98.2561 36.0245 98.1826 36.0245C98.1337 36.0245 98.0847 36.0245 98.0357 36.0245C97.9133 36.0245 97.8153 36.0123 97.7419 35.9877C97.6684 35.9632 97.5949 35.9142 97.5215 35.8406C97.2032 35.5218 96.8971 35.1417 96.6032 34.7003C96.3094 34.2343 96.0033 33.6826 95.685 33.045C95.3911 32.4074 95.085 31.6839 94.7667 30.8747C94.4484 30.0409 94.1178 29.1213 93.775 28.1158C93.4566 27.1104 93.1138 26.0191 92.7465 24.842L93.9586 25.8719H92.0119L92.7465 24.8052C92.869 25.9578 92.9669 27.0368 93.0404 28.0422C93.1383 29.0232 93.2118 29.9305 93.2607 30.7643C93.3342 31.5736 93.3832 32.3338 93.4077 33.045C93.4566 33.7316 93.4811 34.3815 93.4811 34.9945C93.5056 35.6076 93.5179 36.1962 93.5179 36.7602C93.5423 37.3242 93.5546 37.8883 93.5546 38.4523C93.5546 39.4578 93.5546 40.4755 93.5546 41.5054C93.5546 42.5354 93.5546 43.5654 93.5546 44.5954Z" fill="white"/>
<path d="M121.088 24.2534C122.778 24.2534 124.198 24.5967 125.349 25.2834C126.524 25.97 127.418 26.9142 128.03 28.1158C128.667 29.2929 128.985 30.6662 128.985 32.2357V32.3828C128.985 33.2902 128.924 34.0014 128.802 34.5163C128.704 35.0068 128.557 35.3501 128.361 35.5463C128.165 35.7425 127.932 35.8406 127.663 35.8406H118.958C118.321 35.8406 117.746 35.767 117.231 35.6199C116.717 35.4482 116.301 35.2153 115.983 34.921L115.248 35.2888L115.358 33.1185H124.467C124.541 32.8978 124.578 32.6648 124.578 32.4196C124.602 32.1744 124.614 31.9537 124.614 31.7575C124.614 31.0954 124.541 30.4945 124.394 29.955C124.247 29.391 124.002 28.876 123.659 28.4101C123.316 28.2875 122.986 28.2016 122.668 28.1526C122.374 28.1035 121.957 28.079 121.419 28.079C119.729 28.079 118.358 28.7411 117.305 30.0654C116.276 31.3651 115.762 33.3515 115.762 36.0245V36.282C115.762 37.0177 115.823 37.6921 115.946 38.3052C116.093 38.8937 116.289 39.4332 116.534 39.9237C117.17 40.267 117.868 40.5245 118.627 40.6962C119.386 40.8433 120.317 40.9169 121.419 40.9169C122.276 40.9169 123.084 40.8556 123.843 40.733C124.602 40.6104 125.324 40.4142 126.01 40.1444C126.72 39.8747 127.406 39.5313 128.067 39.1144H128.287C128.336 39.3106 128.361 39.5068 128.361 39.703C128.385 39.8992 128.398 40.1076 128.398 40.3283C128.398 41.0395 128.3 41.6281 128.104 42.094C127.932 42.5599 127.675 42.9646 127.332 43.3079C126.941 43.7003 126.426 44.0313 125.79 44.3011C125.177 44.5463 124.492 44.718 123.733 44.8161C122.998 44.9387 122.215 45 121.382 45C119.913 45 118.566 44.7793 117.342 44.3379C116.117 43.8965 115.052 43.2589 114.146 42.4251C113.265 41.5913 112.567 40.5858 112.052 39.4087C111.563 38.2071 111.318 36.8583 111.318 35.3624V35.1049C111.318 33.4373 111.563 31.9414 112.052 30.6172C112.542 29.2929 113.228 28.1648 114.109 27.233C114.991 26.2766 116.032 25.5409 117.231 25.0259C118.431 24.5109 119.717 24.2534 121.088 24.2534Z" fill="white"/>
<path d="M132.938 24.7684H148.916C149.748 24.7684 150.324 24.9646 150.642 25.3569C150.96 25.7493 151.119 26.4482 151.119 27.4537C151.119 27.6499 151.107 27.8583 151.083 28.079C151.083 28.2997 151.07 28.5082 151.046 28.7044C151.021 28.876 150.985 29.0477 150.936 29.2193H138.3C137.272 29.2193 136.403 29.1458 135.693 28.9986C134.982 28.8515 134.419 28.6308 134.003 28.3365C133.587 28.0422 133.293 27.6744 133.121 27.233C132.95 26.7916 132.864 26.252 132.864 25.6144C132.864 25.5163 132.864 25.4183 132.864 25.3202C132.889 25.1975 132.901 25.0995 132.901 25.0259C132.926 24.9278 132.938 24.842 132.938 24.7684ZM150.936 39.0777C150.96 39.2493 150.985 39.4455 151.009 39.6662C151.034 39.8624 151.046 40.0463 151.046 40.218C151.046 40.9782 150.948 41.6403 150.752 42.2044C150.556 42.7439 150.238 43.2221 149.797 43.639C149.601 43.8351 149.356 44.0191 149.062 44.1907C148.769 44.3624 148.426 44.4973 148.034 44.5954C147.667 44.718 147.238 44.8038 146.748 44.8529C146.283 44.9264 145.769 44.9632 145.206 44.9632C144.104 44.9632 143.1 44.8161 142.194 44.5218C141.288 44.2275 140.504 43.8106 139.843 43.2711C139.206 42.7071 138.704 42.045 138.337 41.2847C137.994 40.5245 137.823 39.6662 137.823 38.7098C137.823 37.312 137.823 35.9264 137.823 34.5531C137.823 33.1553 137.823 31.7698 137.823 30.3965C137.823 29.0232 137.823 27.6376 137.823 26.2398C137.823 24.842 137.823 23.4687 137.823 22.1199C137.823 21.5068 137.786 20.9183 137.713 20.3542C137.664 19.7657 137.554 19.2262 137.382 18.7357C137.749 18.6376 138.092 18.564 138.411 18.515C138.753 18.4659 139.084 18.4414 139.402 18.4414C139.941 18.4414 140.419 18.564 140.835 18.8093C141.276 19.0545 141.618 19.4346 141.863 19.9496C142.133 20.4401 142.267 21.0777 142.267 21.8624C142.267 23.2357 142.267 24.5967 142.267 25.9455C142.267 27.2943 142.267 28.6553 142.267 30.0286C142.267 31.3774 142.267 32.7262 142.267 34.0749C142.267 35.4237 142.267 36.7847 142.267 38.158C142.267 38.5259 142.28 38.8692 142.304 39.188C142.353 39.4823 142.427 39.7643 142.524 40.0341C142.892 40.2302 143.271 40.3774 143.663 40.4755C144.055 40.549 144.483 40.5858 144.949 40.5858C145.781 40.5858 146.516 40.5368 147.153 40.4387C147.789 40.3406 148.377 40.1812 148.916 39.9605C149.479 39.7398 150.079 39.4455 150.715 39.0777H150.936Z" fill="white"/>
<path d="M154.998 34.5531H169.14C169.727 34.5531 170.156 34.5777 170.425 34.6267C170.695 34.6757 170.952 34.7616 171.197 34.8842L172.666 34.7738V35.5463V36.3924H155.88C155.684 36.3924 155.513 36.3311 155.366 36.2084C155.243 36.0613 155.145 35.8774 155.072 35.6567C155.023 35.436 154.998 35.1907 154.998 34.921V34.5531ZM157.937 44.7425C157.839 44.767 157.741 44.7916 157.643 44.8161C157.545 44.8406 157.398 44.8529 157.202 44.8529C157.055 44.8529 156.896 44.8283 156.725 44.7793C156.553 44.7302 156.407 44.6444 156.284 44.5218C156.162 44.3992 156.1 44.2275 156.1 44.0068C156.198 42.5845 156.345 41.1989 156.541 39.8501C156.762 38.4768 157.019 37.1526 157.313 35.8774C157.606 34.5777 157.937 33.3147 158.304 32.0886C158.696 30.8379 159.112 29.624 159.553 28.4469C159.994 27.2698 160.471 26.1172 160.986 24.9891C161.524 23.861 162.075 22.7575 162.638 21.6785C163.226 20.5995 163.826 19.545 164.438 18.515C164.561 18.4659 164.708 18.4292 164.879 18.4046C165.075 18.3801 165.295 18.3678 165.54 18.3678C165.858 18.3678 166.14 18.4169 166.385 18.515C166.63 18.6131 166.899 18.8583 167.193 19.2507C167.487 19.6185 167.842 20.2071 168.258 21.0163C168.821 22.0708 169.409 23.3215 170.021 24.7684C170.658 26.2153 171.27 27.8093 171.858 29.5504C172.446 31.267 172.972 33.1063 173.437 35.0681C173.927 37.03 174.294 39.0654 174.539 41.1744C174.613 41.7629 174.674 42.3883 174.723 43.0504C174.796 43.688 174.833 44.252 174.833 44.7425C174.735 44.767 174.637 44.7916 174.539 44.8161C174.466 44.8406 174.368 44.8529 174.245 44.8529C174.049 44.8529 173.854 44.8161 173.658 44.7425C173.486 44.6935 173.339 44.5954 173.217 44.4482C173.094 44.3011 173.021 44.1172 172.996 43.8965C172.825 42.4005 172.592 40.8188 172.299 39.1512C172.005 37.4837 171.637 35.7793 171.197 34.0381C170.78 32.297 170.278 30.5681 169.691 28.8515C169.103 27.1349 168.43 25.4673 167.671 23.8488C166.911 22.2057 166.054 20.6608 165.099 19.2139L166.789 20.1335H164.365L166.054 19.2139C165.246 20.5381 164.463 21.936 163.704 23.4074C162.969 24.8787 162.283 26.4237 161.647 28.0422C161.01 29.6608 160.435 31.3529 159.92 33.1185C159.406 34.8842 158.978 36.7357 158.635 38.673C158.292 40.6104 158.059 42.6335 157.937 44.7425Z" fill="white"/>
<path d="M182.459 44.5586C182.361 44.5831 182.263 44.6076 182.165 44.6322C182.067 44.6567 181.957 44.6689 181.835 44.6689C181.296 44.6689 180.916 44.4973 180.696 44.1539C180.476 43.7861 180.366 43.2221 180.366 42.4618C180.366 40.5245 180.366 38.5995 180.366 36.6866C180.366 34.7493 180.366 32.8242 180.366 30.9114C180.366 28.9741 180.366 27.049 180.366 25.1362C180.366 23.1989 180.366 21.2616 180.366 19.3243H182.202L181.688 20.4278C181.908 20.6975 182.043 21.0041 182.092 21.3474C182.165 21.6907 182.202 22.0831 182.202 22.5245C182.202 24.4373 182.202 26.3869 182.202 28.3733C182.202 30.3597 182.202 32.3828 182.202 34.4428C182.202 36.4782 182.202 38.5381 182.202 40.6226C182.202 41.3093 182.214 41.9836 182.239 42.6458C182.288 43.2834 182.361 43.921 182.459 44.5586ZM178.529 18.7357C180.317 18.4414 181.871 18.2452 183.194 18.1471C184.516 18.049 185.716 18 186.793 18C188.14 18 189.316 18.1226 190.32 18.3678C191.348 18.5886 192.217 18.9196 192.927 19.361C193.662 19.7779 194.25 20.3052 194.69 20.9428C195.131 21.5804 195.45 22.3161 195.645 23.1499C195.866 23.9591 195.976 24.8542 195.976 25.8351V26.718C195.976 28.2629 195.645 29.6975 194.984 31.0218C194.323 32.346 193.429 33.5109 192.303 34.5163C191.201 35.4973 189.952 36.2698 188.556 36.8338C187.161 37.3978 185.728 37.6798 184.259 37.6798C183.794 37.6798 183.414 37.6308 183.12 37.5327C182.851 37.4101 182.618 37.2507 182.422 37.0545L181.761 37.312V35.5095C182.104 35.6322 182.435 35.718 182.753 35.767C183.096 35.8161 183.512 35.8406 184.002 35.8406C185.324 35.8406 186.585 35.6076 187.785 35.1417C189.009 34.6757 190.099 34.0259 191.054 33.1921C192.009 32.3583 192.756 31.3774 193.295 30.2493C193.858 29.1213 194.139 27.8951 194.139 26.5708V26.0191C194.139 25.1853 194.054 24.3883 193.882 23.6281C193.735 22.8678 193.478 22.1812 193.111 21.5681C192.278 20.9305 191.409 20.4891 190.503 20.2439C189.597 19.9741 188.397 19.8392 186.904 19.8392C185.777 19.8392 184.687 19.9005 183.635 20.0232C182.606 20.1458 181.725 20.2684 180.99 20.391C180.255 20.5136 179.766 20.5749 179.521 20.5749C179.153 20.5749 178.896 20.4523 178.749 20.2071C178.602 19.9373 178.529 19.5695 178.529 19.1035C178.529 19.0545 178.529 18.9932 178.529 18.9196C178.529 18.846 178.529 18.7847 178.529 18.7357Z" fill="white"/>
<path d="M204.483 44.5586C204.385 44.5831 204.287 44.6076 204.189 44.6322C204.091 44.6567 203.981 44.6689 203.859 44.6689C203.32 44.6689 202.94 44.4973 202.72 44.1539C202.5 43.7861 202.39 43.2221 202.39 42.4618C202.39 40.5245 202.39 38.5995 202.39 36.6866C202.39 34.7493 202.39 32.8242 202.39 30.9114C202.39 28.9741 202.39 27.049 202.39 25.1362C202.39 23.1989 202.39 21.2616 202.39 19.3243H204.226L203.712 20.4278C203.932 20.6975 204.067 21.0041 204.116 21.3474C204.189 21.6907 204.226 22.0831 204.226 22.5245C204.226 24.4373 204.226 26.3869 204.226 28.3733C204.226 30.3597 204.226 32.3828 204.226 34.4428C204.226 36.4782 204.226 38.5381 204.226 40.6226C204.226 41.3093 204.238 41.9836 204.263 42.6458C204.312 43.2834 204.385 43.921 204.483 44.5586ZM200.553 18.7357C202.341 18.4414 203.895 18.2452 205.218 18.1471C206.54 18.049 207.74 18 208.817 18C210.164 18 211.34 18.1226 212.343 18.3678C213.372 18.5886 214.241 18.9196 214.951 19.361C215.686 19.7779 216.274 20.3052 216.714 20.9428C217.155 21.5804 217.474 22.3161 217.669 23.1499C217.89 23.9591 218 24.8542 218 25.8351V26.718C218 28.2629 217.669 29.6975 217.008 31.0218C216.347 32.346 215.453 33.5109 214.327 34.5163C213.225 35.4973 211.976 36.2698 210.58 36.8338C209.185 37.3978 207.752 37.6798 206.283 37.6798C205.818 37.6798 205.438 37.6308 205.144 37.5327C204.875 37.4101 204.642 37.2507 204.446 37.0545L203.785 37.312V35.5095C204.128 35.6322 204.459 35.718 204.777 35.767C205.12 35.8161 205.536 35.8406 206.026 35.8406C207.348 35.8406 208.609 35.6076 209.809 35.1417C211.033 34.6757 212.123 34.0259 213.078 33.1921C214.033 32.3583 214.78 31.3774 215.319 30.2493C215.882 29.1213 216.163 27.8951 216.163 26.5708V26.0191C216.163 25.1853 216.078 24.3883 215.906 23.6281C215.759 22.8678 215.502 22.1812 215.135 21.5681C214.302 20.9305 213.433 20.4891 212.527 20.2439C211.621 19.9741 210.421 19.8392 208.928 19.8392C207.801 19.8392 206.711 19.9005 205.659 20.0232C204.63 20.1458 203.749 20.2684 203.014 20.391C202.279 20.5136 201.79 20.5749 201.545 20.5749C201.177 20.5749 200.92 20.4523 200.773 20.2071C200.626 19.9373 200.553 19.5695 200.553 19.1035C200.553 19.0545 200.553 18.9932 200.553 18.9196C200.553 18.846 200.553 18.7847 200.553 18.7357Z" fill="white"/>
<defs>
<linearGradient id="paint0_linear_0_1" x1="31.1106" y1="0.125748" x2="31.1106" y2="61.8742" gradientUnits="userSpaceOnUse">
<stop stop-color="#6A2DB1"/>
<stop offset="1" stop-color="#4711E3"/>
</linearGradient>
</defs>
</svg>