<svg width="34" height="34" viewBox="0 0 34 34" fill="none" xmlns="http://www.w3.org/2000/svg">
<path d="M17 34C26.3888 34 34 26.3888 34 17C34 7.61116 26.3888 0 17 0C7.61116 0 0 7.61116 0 17C0 26.3888 7.61116 34 17 34Z" fill="white"/>
<path d="M17.0324 14.1006L9.68126 17.4598L17.0324 5.16465V14.1006Z" fill="#838383"/>
<path d="M17.0324 5.16465L24.3851 17.4645L17.0324 14.1052L17.0324 5.16465Z" fill="#303030"/>
<path d="M17.0324 14.1006L24.3851 17.4598L17.0324 21.7959L17.0324 14.1006Z" fill="#131313"/>
<path d="M17.0324 21.7959L9.68126 17.4598L17.0324 14.1006L17.0324 21.7959Z" fill="#353535"/>
<path d="M17.0325 28.84L9.55166 18.4042L17.0325 22.7773V28.84Z" fill="#838383"/>
<path d="M16.9676 22.7773L24.4499 18.4042L16.9676 28.84V22.7773Z" fill="#303030"/>
</svg>