<svg width="35" height="35" viewBox="0 0 35 35" fill="none" xmlns="http://www.w3.org/2000/svg">
<path d="M17.5 35C27.165 35 35 27.165 35 17.5C35 7.83502 27.165 0 17.5 0C7.83502 0 0 7.83502 0 17.5C0 27.165 7.83502 35 17.5 35Z" fill="#8247E5"/>
<path d="M22.7515 27.4834C22.3561 27.483 21.9671 27.383 21.6205 27.1927L17.3508 24.8545C16.9782 24.653 16.6667 24.355 16.449 23.9916C16.2313 23.6283 16.1154 23.2131 16.1133 22.7895V21.3329L18.6231 19.8716V22.7022L22.7531 24.9562L26.7068 22.7149V17.9495L22.7833 15.8957L13.4384 21.1169C13.0753 21.3198 12.665 21.4231 12.2491 21.4164C11.8332 21.4097 11.4264 21.2933 11.07 21.0788L6.93049 18.5881C6.58272 18.3772 6.295 18.0805 6.095 17.7264C5.89499 17.3723 5.78941 16.9727 5.7884 16.566V12.2772C5.78939 11.8644 5.89805 11.459 6.10364 11.101C6.30922 10.743 6.60463 10.4449 6.96068 10.236L11.0732 7.84378C11.4374 7.63231 11.8515 7.52198 12.2726 7.52421C12.6937 7.52644 13.1066 7.64116 13.4686 7.85649L17.4715 10.2392C17.821 10.4492 18.1104 10.7457 18.3119 11.1002C18.5133 11.4547 18.62 11.8551 18.6215 12.2629V13.6925L16.1118 14.9505V12.3486L12.2566 10.0517L8.29657 12.3566V16.4754L12.2884 18.8772L21.6285 13.6575C21.9711 13.466 22.356 13.363 22.7485 13.3577C23.1409 13.3524 23.5285 13.4451 23.8761 13.6273L27.9489 15.7622C28.3321 15.9606 28.6533 16.2606 28.8774 16.6293C29.1015 16.9979 29.2199 17.4212 29.2197 17.8526V22.7895C29.2205 23.2093 29.1097 23.6217 28.8987 23.9845C28.6877 24.3474 28.384 24.6476 28.0188 24.8545L23.9174 27.1737C23.5623 27.3765 23.1604 27.4832 22.7515 27.4834Z" fill="white"/>
</svg>