<svg width="121" height="112" viewBox="0 0 121 112" fill="none" xmlns="http://www.w3.org/2000/svg">
<path d="M28.5008 53.9574C20.263 60.1099 22.8841 65.3233 19.0635 69.9643C16.3921 73.208 4.84812 72.9477 1.16146 80.9619C-2.52519 88.976 5.31542 95.5304 18.479 97.8121C31.6426 100.094 40.7663 101.783 47.7287 107.289C54.691 112.795 72.5291 113.2 84 103.662C95.471 94.1239 113.834 102.292 119.687 89.4266C124.028 79.8751 109.508 75.8139 108.338 68.5594C107.167 61.3048 96.8638 49.429 81.8903 54.519C66.9169 59.6091 41.0784 44.5596 28.5008 53.9574Z" fill="#FFCCE5"/>
<path d="M82.7383 73.174C82.0625 71.9562 82.0625 70.7568 83.2178 69.0322C85.3823 65.6926 86.6244 61.6969 86.6244 57.2112C86.6244 43.6853 75.3422 32.7197 61.4252 32.7197C47.5081 32.7197 36.2244 43.6792 36.2244 57.2112C36.2109 59.8216 36.6598 62.4137 37.5502 64.8676C38.3265 66.9666 38.6401 70.4706 36.9246 72.1861C35.1422 73.9685 32.0537 74.2532 30.9562 76.2822C29.7218 78.5563 31.4631 81.7026 36.8713 80.9872C38.7558 80.7375 43.788 78.0586 45.7379 80.7665C47.2113 82.8122 52.481 87.3589 59.3139 84.5429C67.3524 81.2338 70.6859 81.2688 74.7714 82.3662C81.889 84.2766 87.4844 81.5854 87.9776 79.051C88.7204 75.2228 83.4142 74.3963 82.7383 73.174Z" fill="#FF97C9"/>
<path opacity="0.79" d="M49.1199 49.2467C51.553 47.1818 52.5314 44.3368 51.3053 42.8921C50.0793 41.4473 47.1129 41.9501 44.6799 44.0149C42.2468 46.0798 41.2683 48.9248 42.4944 50.3696C43.7205 51.8143 46.6868 51.3115 49.1199 49.2467Z" fill="white"/>
<path d="M51.2124 61.5241C52.6516 61.5241 53.8183 60.3574 53.8183 58.9182C53.8183 57.479 52.6516 56.3123 51.2124 56.3123C49.7732 56.3123 48.6064 57.479 48.6064 58.9182C48.6064 60.3574 49.7732 61.5241 51.2124 61.5241Z" fill="#1C3177"/>
<path opacity="0.79" d="M69.9763 60.8783C69.9763 60.8783 70.4725 61.7155 70.2366 62.5009C70.0006 63.2863 69.2548 64.4797 70.1681 65.5254C71.0814 66.5711 72.6827 66.0125 72.9582 64.8907C73.2337 63.7688 71.8531 62.1188 72.567 61.2025C72.0951 60.5191 69.9763 60.8783 69.9763 60.8783Z" fill="white"/>
<path d="M71.3745 61.5241C72.8137 61.5241 73.9804 60.3574 73.9804 58.9182C73.9804 57.479 72.8137 56.3123 71.3745 56.3123C69.9353 56.3123 68.7686 57.479 68.7686 58.9182C68.7686 60.3574 69.9353 61.5241 71.3745 61.5241Z" fill="#1C3177"/>
<path d="M58.1836 64.3608C58.1836 64.3608 58.8336 62.4368 61.3299 62.4368C63.8262 62.4368 64.3985 64.3608 64.3985 64.3608" stroke="#413F4C" stroke-miterlimit="10" stroke-linecap="round"/>
<path d="M50.4805 30.799L89.4126 53.957L96.6824 4.47031C97.1908 1.03176 93.2743 -1.29561 90.4933 0.789741L50.4805 30.799Z" fill="#FEA691"/>
<path d="M47.4955 31.4343L46.5704 32.9898C45.9852 33.974 46.3085 35.2462 47.2926 35.8314L86.5045 59.1508C87.4886 59.736 88.7608 59.4127 89.3461 58.4286L90.2712 56.873C90.8564 55.8889 90.5331 54.6167 89.549 54.0315L50.3371 30.7121C49.353 30.1269 48.0808 30.4502 47.4955 31.4343Z" fill="#FEC272"/>
<path opacity="0.79" d="M57.2305 44.1675L68.773 38.5097L45.0625 24.9792L40.3818 32.7194L57.2305 44.1675Z" fill="white"/>
<path opacity="0.36" d="M94.6296 18.4302C94.6296 18.4302 89.2305 37.486 69.1533 41.9079L89.4101 53.9572L94.6296 18.4302Z" fill="#FEA691"/>
<path d="M74.7744 23.0435L77.5036 32.7183" stroke="#FF8D76" stroke-width="0.341395" stroke-miterlimit="10" stroke-linecap="round"/>
<path d="M78.5439 16.2227L81.2747 25.8975" stroke="#FF8D76" stroke-width="0.341395" stroke-miterlimit="10" stroke-linecap="round"/>
<path d="M65.6328 27.7981L66.9723 32.5472" stroke="#FF8D76" stroke-width="0.341395" stroke-miterlimit="10" stroke-linecap="round"/>
<path opacity="0.48" d="M82.7383 39.8513L87.4859 38.5103" stroke="#FF8D76" stroke-width="0.341395" stroke-miterlimit="10" stroke-linecap="round"/>
<path d="M74.7744 22.4942L84.2285 19.0754" stroke="#FF8D76" stroke-width="0.341395" stroke-miterlimit="10" stroke-linecap="round"/>
<path d="M33.7014 84.9021C31.479 84.6997 28.1638 85.7591 27.7224 87.4502C27.2809 89.1413 30.8915 90.117 34.1154 89.8415C37.5463 89.5493 38.7427 88.1671 38.5296 87.4289C38.3165 86.6907 36.7898 85.1807 33.7014 84.9021Z" fill="#FF97C9"/>
<path d="M78.0311 85.4371C75.7646 85.6761 75.2486 88.0978 76.9123 88.9822C78.576 89.8666 83.2307 89.2166 83.1531 87.6823C83.0755 86.1479 81.0738 85.1159 78.0311 85.4371Z" fill="#FF97C9"/>
</svg>